<svg width="256" height="260" viewBox="0 0 256 260" fill="none" xmlns="http://www.w3.org/2000/svg">
<path d="M127.86 3.05176e-05L142.675 39.6363L169.375 7.0275L170.701 49.396L206.392 27.3483L194.084 67.8579L234.899 58.7605L210.291 93.0211L251.807 97.86L217.565 122.159L255.282 140.41L215.118 152.114L244.95 181.799L203.215 179.64L221.929 217.542L183.147 201.754L188.714 243.766L157.087 216.06L148.905 257.63L127.86 221.008L106.815 257.63L98.6323 216.06L67.0051 243.766L72.5723 201.754L33.7902 217.542L52.5036 179.64L10.7692 181.799L40.6008 152.114L0.436707 140.41L38.1539 122.159L3.91247 97.86L45.4279 93.0211L20.8198 58.7605L61.6347 67.8579L49.3266 27.3483L85.018 49.396L86.3436 7.0275L113.044 39.6363L127.86 3.05176e-05Z" fill="#16D8D3"/>
<path d="M86.7136 121.044V93.544H97.7136V98.8565H92.3074V104.216H97.4949V109.388H92.3074V115.685H98.073V121.044H86.7136ZM99.8074 121.044V97.6065H105.276V100.325C105.526 99.3669 105.953 98.6325 106.557 98.1221C107.162 97.6117 108.047 97.3565 109.214 97.3565C110.151 97.3565 110.948 97.5753 111.604 98.0128C112.271 98.4398 112.74 99.0075 113.01 99.7159C113.438 98.945 113.938 98.3617 114.51 97.9659C115.094 97.5596 115.922 97.3565 116.995 97.3565C118.297 97.3565 119.297 97.6378 119.995 98.2003C120.703 98.7523 121.193 99.5232 121.464 100.513C121.745 101.492 121.885 102.627 121.885 103.919V121.044H116.307V103.825C116.307 102.315 115.922 101.56 115.151 101.56C114.745 101.56 114.432 101.7 114.214 101.982C113.995 102.252 113.844 102.591 113.76 102.997C113.677 103.403 113.635 103.81 113.635 104.216V121.044H108.057V103.825C108.057 103.336 107.995 102.846 107.87 102.357C107.755 101.867 107.453 101.622 106.964 101.622C106.547 101.622 106.224 101.773 105.995 102.075C105.766 102.377 105.609 102.752 105.526 103.2C105.443 103.638 105.401 104.07 105.401 104.497V121.044H99.8074ZM124.089 121.044V97.6065H129.557V100.325C129.807 99.3669 130.234 98.6325 130.839 98.1221C131.443 97.6117 132.328 97.3565 133.495 97.3565C134.432 97.3565 135.229 97.5753 135.885 98.0128C136.552 98.4398 137.021 99.0075 137.292 99.7159C137.719 98.945 138.219 98.3617 138.792 97.9659C139.375 97.5596 140.203 97.3565 141.276 97.3565C142.578 97.3565 143.578 97.6378 144.276 98.2003C144.984 98.7523 145.474 99.5232 145.745 100.513C146.026 101.492 146.167 102.627 146.167 103.919V121.044H140.589V103.825C140.589 102.315 140.203 101.56 139.432 101.56C139.026 101.56 138.714 101.7 138.495 101.982C138.276 102.252 138.125 102.591 138.042 102.997C137.958 103.403 137.917 103.81 137.917 104.216V121.044H132.339V103.825C132.339 103.336 132.276 102.846 132.151 102.357C132.037 101.867 131.734 101.622 131.245 101.622C130.828 101.622 130.505 101.773 130.276 102.075C130.047 102.377 129.891 102.752 129.807 103.2C129.724 103.638 129.682 104.07 129.682 104.497V121.044H124.089ZM152.635 121.294C151.333 121.294 150.339 120.992 149.651 120.388C148.974 119.784 148.51 118.955 148.26 117.903C148.01 116.851 147.885 115.659 147.885 114.325C147.885 112.898 148.026 111.732 148.307 110.825C148.589 109.909 149.068 109.159 149.745 108.575C150.432 107.992 151.375 107.497 152.573 107.091L156.042 105.903V103.497C156.042 102.237 155.63 101.607 154.807 101.607C154.057 101.607 153.682 102.117 153.682 103.138V104.544H148.245C148.234 104.461 148.229 104.357 148.229 104.232C148.229 104.096 148.229 103.945 148.229 103.778C148.229 101.445 148.776 99.794 149.87 98.8253C150.974 97.8461 152.719 97.3565 155.104 97.3565C156.354 97.3565 157.474 97.5805 158.464 98.0284C159.453 98.4659 160.234 99.1169 160.807 99.9815C161.391 100.846 161.682 101.914 161.682 103.185V121.044H156.12V118.263C155.849 119.242 155.401 119.992 154.776 120.513C154.151 121.034 153.438 121.294 152.635 121.294ZM154.839 116.95C155.297 116.95 155.609 116.758 155.776 116.372C155.943 115.987 156.026 115.57 156.026 115.122V108.591C155.255 108.903 154.656 109.299 154.229 109.778C153.802 110.247 153.589 110.94 153.589 111.857V114.872C153.589 116.258 154.005 116.95 154.839 116.95ZM80.6355 166.044V143.825H77.3699V138.544H89.4011V143.825H86.1355V166.044H80.6355ZM93.2917 166.044L90.4636 142.607H95.2605L96.8074 155.2L98.1667 142.607H103.526L105.135 155.2L106.432 142.607H111.245L108.385 166.044H102.495L100.807 152.747L99.3386 166.044H93.2917ZM112.667 169.95V166.403H115.354C115.76 166.403 115.964 166.263 115.964 165.982C115.964 165.836 115.948 165.685 115.917 165.528L112.245 142.607H117.604L119.167 159.857L121.01 142.607H126.401L122.057 167.263C121.901 168.148 121.599 168.815 121.151 169.263C120.714 169.721 119.99 169.95 118.979 169.95H112.667ZM128.385 166.044V147.903H127.37V143.638H128.385V142.044C128.385 139.523 129.646 138.263 132.167 138.263C133.354 138.263 134.313 138.414 135.042 138.716V142.169C134.781 142.117 134.609 142.091 134.526 142.091C134.203 142.091 134.005 142.211 133.932 142.45C133.859 142.679 133.823 142.976 133.823 143.341V143.638H135.042V147.966H133.932V166.044H128.385ZM143.651 166.294C138.984 166.294 136.651 163.872 136.651 159.028V149.622C136.651 147.414 137.271 145.653 138.51 144.341C139.75 143.018 141.464 142.357 143.651 142.357C145.849 142.357 147.568 143.018 148.807 144.341C150.047 145.653 150.667 147.414 150.667 149.622V159.028C150.667 163.872 148.328 166.294 143.651 166.294ZM143.651 161.982C144.12 161.982 144.453 161.815 144.651 161.482C144.859 161.138 144.964 160.705 144.964 160.185V148.732C144.964 147.367 144.526 146.685 143.651 146.685C142.776 146.685 142.339 147.367 142.339 148.732V160.185C142.339 160.705 142.438 161.138 142.635 161.482C142.844 161.815 143.182 161.982 143.651 161.982ZM152.745 166.044V142.607H158.432V145.216C158.703 144.31 159.182 143.601 159.87 143.091C160.557 142.58 161.422 142.325 162.464 142.325V146.997C162.005 146.997 161.458 147.049 160.823 147.153C160.188 147.247 159.63 147.383 159.151 147.56C158.672 147.726 158.432 147.914 158.432 148.122V166.044H152.745ZM168.448 166.294C167.365 166.294 166.505 166.096 165.87 165.7C165.234 165.304 164.76 164.758 164.448 164.06C164.135 163.362 163.927 162.544 163.823 161.607C163.729 160.669 163.682 159.664 163.682 158.591V148.403C163.682 146.601 164 145.143 164.635 144.028C165.281 142.914 166.37 142.357 167.901 142.357C169.037 142.357 169.906 142.601 170.51 143.091C171.125 143.57 171.599 144.242 171.932 145.107V138.544H177.62V166.044H171.932V163.56C171.62 164.403 171.203 165.07 170.682 165.56C170.172 166.049 169.427 166.294 168.448 166.294ZM170.589 161.919C171.12 161.919 171.474 161.705 171.651 161.278C171.839 160.851 171.932 160.086 171.932 158.982V149.122C171.932 148.57 171.849 148.028 171.682 147.497C171.526 146.955 171.172 146.685 170.62 146.685C170.016 146.685 169.635 146.94 169.479 147.45C169.323 147.961 169.245 148.518 169.245 149.122V158.982C169.245 160.94 169.693 161.919 170.589 161.919Z" fill="white"/>
</svg>
