<svg width="256" height="260" viewBox="0 0 256 260" fill="none" xmlns="http://www.w3.org/2000/svg">
<path d="M127.86 3.05176e-05L142.675 39.6363L169.375 7.0275L170.701 49.396L206.392 27.3483L194.084 67.8579L234.899 58.7605L210.291 93.0211L251.807 97.86L217.565 122.159L255.282 140.41L215.118 152.114L244.95 181.799L203.215 179.64L221.929 217.542L183.147 201.754L188.714 243.766L157.087 216.06L148.905 257.63L127.86 221.008L106.815 257.63L98.6323 216.06L67.0051 243.766L72.5723 201.754L33.7902 217.542L52.5036 179.64L10.7692 181.799L40.6008 152.114L0.436707 140.41L38.1539 122.159L3.91247 97.86L45.4279 93.0211L20.8198 58.7605L61.6347 67.8579L49.3266 27.3483L85.018 49.396L86.3436 7.0275L113.044 39.6363L127.86 3.05176e-05Z" fill="#FFC567"/>
<path d="M98.573 121.044V93.544H105.839C107.359 93.544 108.563 93.8825 109.448 94.5596C110.344 95.2367 110.984 96.2003 111.37 97.4503C111.755 98.7003 111.948 100.19 111.948 101.919C111.948 103.586 111.787 105.039 111.464 106.278C111.141 107.508 110.563 108.461 109.729 109.138C108.906 109.815 107.734 110.153 106.214 110.153H103.979V121.044H98.573ZM103.979 105.216H104.292C105.313 105.216 105.938 104.929 106.167 104.357C106.396 103.784 106.51 102.94 106.51 101.825C106.51 100.784 106.396 99.9815 106.167 99.419C105.948 98.8461 105.422 98.5596 104.589 98.5596H103.979V105.216ZM117.87 121.294C116.568 121.294 115.573 120.992 114.885 120.388C114.208 119.784 113.745 118.955 113.495 117.903C113.245 116.851 113.12 115.659 113.12 114.325C113.12 112.898 113.26 111.732 113.542 110.825C113.823 109.909 114.302 109.159 114.979 108.575C115.667 107.992 116.609 107.497 117.807 107.091L121.276 105.903V103.497C121.276 102.237 120.865 101.607 120.042 101.607C119.292 101.607 118.917 102.117 118.917 103.138V104.544H113.479C113.469 104.461 113.464 104.357 113.464 104.232C113.464 104.096 113.464 103.945 113.464 103.778C113.464 101.445 114.01 99.794 115.104 98.8253C116.208 97.8461 117.953 97.3565 120.339 97.3565C121.589 97.3565 122.708 97.5805 123.698 98.0284C124.688 98.4659 125.469 99.1169 126.042 99.9815C126.625 100.846 126.917 101.914 126.917 103.185V121.044H121.354V118.263C121.083 119.242 120.635 119.992 120.01 120.513C119.385 121.034 118.672 121.294 117.87 121.294ZM120.073 116.95C120.531 116.95 120.844 116.758 121.01 116.372C121.177 115.987 121.26 115.57 121.26 115.122V108.591C120.49 108.903 119.891 109.299 119.464 109.778C119.037 110.247 118.823 110.94 118.823 111.857V114.872C118.823 116.258 119.24 116.95 120.073 116.95ZM133.589 121.294C132.339 121.294 131.38 121.034 130.714 120.513C130.057 119.992 129.609 119.268 129.37 118.341C129.13 117.403 129.01 116.31 129.01 115.06V97.6065H134.635V114.403C134.635 115.341 134.708 115.997 134.854 116.372C135 116.737 135.344 116.919 135.885 116.919C136.469 116.919 136.833 116.659 136.979 116.138C137.135 115.617 137.214 114.945 137.214 114.122V97.6065H142.792V121.044H137.198V118.544C136.844 119.44 136.417 120.122 135.917 120.591C135.427 121.06 134.651 121.294 133.589 121.294ZM145.042 121.044V93.544H150.729V121.044H145.042ZM70.4792 166.044V138.544H77.7449C79.2657 138.544 80.4688 138.883 81.3542 139.56C82.2501 140.237 82.8907 141.2 83.2761 142.45C83.6615 143.7 83.8542 145.19 83.8542 146.919C83.8542 148.586 83.6928 150.039 83.3699 151.278C83.047 152.508 82.4688 153.461 81.6355 154.138C80.8126 154.815 79.6407 155.153 78.1199 155.153H75.8855V166.044H70.4792ZM75.8855 150.216H76.198C77.2188 150.216 77.8438 149.929 78.073 149.357C78.3022 148.784 78.4167 147.94 78.4167 146.825C78.4167 145.784 78.3022 144.982 78.073 144.419C77.8542 143.846 77.3282 143.56 76.4949 143.56H75.8855V150.216ZM85.5105 166.044V142.607H91.198V145.216C91.4688 144.31 91.948 143.601 92.6355 143.091C93.323 142.58 94.1876 142.325 95.2292 142.325V146.997C94.7709 146.997 94.224 147.049 93.5886 147.153C92.9532 147.247 92.3959 147.383 91.9167 147.56C91.4376 147.726 91.198 147.914 91.198 148.122V166.044H85.5105ZM96.573 141.169V136.513H102.167V141.169H96.573ZM96.573 166.044V142.607H102.167V166.044H96.573ZM109.198 166.294C107.688 166.294 106.667 165.976 106.135 165.341C105.615 164.695 105.354 163.711 105.354 162.388V147.778H103.776V143.513H105.354V138.544H110.792V143.513H112.37V147.778H110.792V161.075C110.792 161.461 110.854 161.732 110.979 161.888C111.104 162.044 111.344 162.122 111.698 162.122C111.948 162.122 112.172 162.101 112.37 162.06V165.872C112.245 165.914 111.854 165.992 111.198 166.107C110.542 166.232 109.875 166.294 109.198 166.294ZM121.214 166.294C118.589 166.294 116.724 165.622 115.62 164.278C114.526 162.935 113.979 160.961 113.979 158.357V151.138C113.979 149.179 114.188 147.549 114.604 146.247C115.021 144.945 115.75 143.971 116.792 143.325C117.833 142.679 119.281 142.357 121.135 142.357C122.427 142.357 123.583 142.586 124.604 143.044C125.635 143.502 126.448 144.174 127.042 145.06C127.635 145.945 127.932 147.028 127.932 148.31V151.888H122.229V148.607C122.229 148.065 122.151 147.612 121.995 147.247C121.839 146.872 121.5 146.685 120.979 146.685C120.063 146.685 119.604 147.336 119.604 148.638V159.997C119.604 160.476 119.708 160.919 119.917 161.325C120.125 161.721 120.469 161.919 120.948 161.919C121.438 161.919 121.776 161.726 121.964 161.341C122.162 160.945 122.26 160.487 122.26 159.966V156.028H127.932V160.122C127.932 161.414 127.641 162.523 127.057 163.45C126.484 164.367 125.693 165.07 124.682 165.56C123.672 166.049 122.516 166.294 121.214 166.294ZM129.885 166.044V138.544H135.635V144.935C135.938 144.06 136.401 143.414 137.026 142.997C137.651 142.57 138.38 142.357 139.214 142.357C140.839 142.357 142.021 142.867 142.76 143.888C143.5 144.909 143.87 146.278 143.87 147.997V166.044H138.214V148.357C138.214 147.846 138.104 147.429 137.885 147.107C137.677 146.784 137.344 146.622 136.885 146.622C136.5 146.622 136.193 146.789 135.964 147.122C135.745 147.455 135.635 147.851 135.635 148.31V166.044H129.885ZM150.339 166.294C149.037 166.294 148.042 165.992 147.354 165.388C146.677 164.784 146.214 163.955 145.964 162.903C145.714 161.851 145.589 160.659 145.589 159.325C145.589 157.898 145.729 156.732 146.01 155.825C146.292 154.909 146.771 154.159 147.448 153.575C148.135 152.992 149.078 152.497 150.276 152.091L153.745 150.903V148.497C153.745 147.237 153.333 146.607 152.51 146.607C151.76 146.607 151.385 147.117 151.385 148.138V149.544H145.948C145.938 149.461 145.932 149.357 145.932 149.232C145.932 149.096 145.932 148.945 145.932 148.778C145.932 146.445 146.479 144.794 147.573 143.825C148.677 142.846 150.422 142.357 152.807 142.357C154.057 142.357 155.177 142.58 156.167 143.028C157.156 143.466 157.938 144.117 158.51 144.982C159.094 145.846 159.385 146.914 159.385 148.185V166.044H153.823V163.263C153.552 164.242 153.104 164.992 152.479 165.513C151.854 166.034 151.141 166.294 150.339 166.294ZM152.542 161.95C153 161.95 153.313 161.758 153.479 161.372C153.646 160.987 153.729 160.57 153.729 160.122V153.591C152.958 153.903 152.359 154.299 151.932 154.778C151.505 155.247 151.292 155.94 151.292 156.857V159.872C151.292 161.258 151.708 161.95 152.542 161.95ZM161.542 166.044V142.607H167.229V145.216C167.5 144.31 167.979 143.601 168.667 143.091C169.354 142.58 170.219 142.325 171.26 142.325V146.997C170.802 146.997 170.255 147.049 169.62 147.153C168.984 147.247 168.427 147.383 167.948 147.56C167.469 147.726 167.229 147.914 167.229 148.122V166.044H161.542ZM177.245 166.294C176.162 166.294 175.302 166.096 174.667 165.7C174.031 165.304 173.557 164.758 173.245 164.06C172.932 163.362 172.724 162.544 172.62 161.607C172.526 160.669 172.479 159.664 172.479 158.591V148.403C172.479 146.601 172.797 145.143 173.432 144.028C174.078 142.914 175.167 142.357 176.698 142.357C177.833 142.357 178.703 142.601 179.307 143.091C179.922 143.57 180.396 144.242 180.729 145.107V138.544H186.417V166.044H180.729V163.56C180.417 164.403 180 165.07 179.479 165.56C178.969 166.049 178.224 166.294 177.245 166.294ZM179.385 161.919C179.917 161.919 180.271 161.705 180.448 161.278C180.635 160.851 180.729 160.086 180.729 158.982V149.122C180.729 148.57 180.646 148.028 180.479 147.497C180.323 146.955 179.969 146.685 179.417 146.685C178.813 146.685 178.432 146.94 178.276 147.45C178.12 147.961 178.042 148.518 178.042 149.122V158.982C178.042 160.94 178.49 161.919 179.385 161.919Z" fill="white"/>
</svg>
