<svg width="256" height="260" viewBox="0 0 256 260" fill="none" xmlns="http://www.w3.org/2000/svg">
<path d="M127.86 0L142.675 39.6363L169.375 7.02747L170.701 49.396L206.392 27.3483L194.084 67.8578L234.899 58.7605L210.291 93.0211L251.807 97.86L217.565 122.159L255.282 140.41L215.118 152.114L244.95 181.799L203.215 179.64L221.929 217.542L183.147 201.754L188.714 243.766L157.087 216.06L148.905 257.63L127.86 221.007L106.815 257.63L98.6323 216.06L67.0051 243.766L72.5723 201.754L33.7902 217.542L52.5036 179.64L10.7692 181.799L40.6008 152.114L0.436707 140.41L38.1539 122.159L3.91247 97.86L45.4279 93.0211L20.8198 58.7605L61.6347 67.8578L49.3266 27.3483L85.018 49.396L86.3436 7.02747L113.044 39.6363L127.86 0Z" fill="#FF62AC"/>
<path d="M93.6199 121.294C92.3803 121.294 91.2501 121.054 90.2292 120.575C89.2084 120.096 88.3959 119.388 87.7917 118.45C87.198 117.502 86.9011 116.341 86.9011 114.966V108.075H92.3386V114.638C92.3386 115.117 92.4324 115.502 92.6199 115.794C92.8178 116.086 93.1303 116.232 93.5574 116.232C94.3803 116.232 94.7917 115.726 94.7917 114.716V93.544H100.339V114.169C100.339 115.627 100.052 116.893 99.4792 117.966C98.9063 119.028 98.1147 119.851 97.1042 120.435C96.0938 121.008 94.9324 121.294 93.6199 121.294ZM106.635 121.294C105.333 121.294 104.339 120.992 103.651 120.388C102.974 119.784 102.51 118.955 102.26 117.903C102.01 116.851 101.885 115.659 101.885 114.325C101.885 112.898 102.026 111.732 102.307 110.825C102.589 109.909 103.068 109.159 103.745 108.575C104.432 107.992 105.375 107.497 106.573 107.091L110.042 105.903V103.497C110.042 102.237 109.63 101.607 108.807 101.607C108.057 101.607 107.682 102.117 107.682 103.138V104.544H102.245C102.234 104.461 102.229 104.357 102.229 104.232C102.229 104.096 102.229 103.945 102.229 103.778C102.229 101.445 102.776 99.794 103.87 98.8253C104.974 97.8461 106.719 97.3565 109.104 97.3565C110.354 97.3565 111.474 97.5805 112.464 98.0284C113.453 98.4659 114.234 99.1169 114.807 99.9815C115.391 100.846 115.682 101.914 115.682 103.185V121.044H110.12V118.263C109.849 119.242 109.401 119.992 108.776 120.513C108.151 121.034 107.438 121.294 106.635 121.294ZM108.839 116.95C109.297 116.95 109.609 116.758 109.776 116.372C109.943 115.987 110.026 115.57 110.026 115.122V108.591C109.255 108.903 108.656 109.299 108.229 109.778C107.802 110.247 107.589 110.94 107.589 111.857V114.872C107.589 116.258 108.005 116.95 108.839 116.95ZM124.885 121.294C122.26 121.294 120.396 120.622 119.292 119.278C118.198 117.935 117.651 115.961 117.651 113.357V106.138C117.651 104.179 117.859 102.549 118.276 101.247C118.693 99.945 119.422 98.9711 120.464 98.3253C121.505 97.6794 122.953 97.3565 124.807 97.3565C126.099 97.3565 127.255 97.5857 128.276 98.044C129.307 98.5023 130.12 99.1742 130.714 100.06C131.307 100.945 131.604 102.028 131.604 103.31V106.888H125.901V103.607C125.901 103.065 125.823 102.612 125.667 102.247C125.51 101.872 125.172 101.685 124.651 101.685C123.734 101.685 123.276 102.336 123.276 103.638V114.997C123.276 115.476 123.38 115.919 123.589 116.325C123.797 116.721 124.141 116.919 124.62 116.919C125.109 116.919 125.448 116.726 125.635 116.341C125.833 115.945 125.932 115.487 125.932 114.966V111.028H131.604V115.122C131.604 116.414 131.313 117.523 130.729 118.45C130.156 119.367 129.365 120.07 128.354 120.56C127.344 121.049 126.188 121.294 124.885 121.294ZM133.557 121.044V93.544H139.089V105.685L141.776 97.6065H147.573L144.057 107.794L148.526 121.044H142.573L139.089 109.997V121.044H133.557ZM148.823 124.95V121.403H151.51C151.917 121.403 152.12 121.263 152.12 120.982C152.12 120.836 152.104 120.685 152.073 120.528L148.401 97.6065H153.76L155.323 114.857L157.167 97.6065H162.557L158.214 122.263C158.057 123.148 157.755 123.815 157.307 124.263C156.87 124.721 156.146 124.95 155.135 124.95H148.823ZM83.073 166.294C79.1459 166.294 77.1824 163.482 77.1824 157.857V145.997C77.1824 140.862 79.4324 138.294 83.9324 138.294C85.7865 138.294 87.2084 138.669 88.198 139.419C89.1876 140.159 89.8699 141.242 90.2449 142.669C90.6199 144.096 90.8074 145.836 90.8074 147.888H85.4324V145.45C85.4324 144.857 85.349 144.362 85.1824 143.966C85.0261 143.56 84.6928 143.357 84.1824 143.357C83.547 143.357 83.1251 143.57 82.9167 143.997C82.7188 144.424 82.6199 144.893 82.6199 145.403V158.732C82.6199 159.471 82.7136 160.075 82.9011 160.544C83.099 161.002 83.4792 161.232 84.0417 161.232C84.6251 161.232 85.0105 161.002 85.198 160.544C85.3959 160.075 85.4949 159.461 85.4949 158.7V154.778H84.0261V150.028H90.7449V166.044H88.5417L87.6042 163.732C86.6459 165.44 85.1355 166.294 83.073 166.294ZM99.6511 166.294C94.9845 166.294 92.6511 163.872 92.6511 159.028V149.622C92.6511 147.414 93.2709 145.653 94.5105 144.341C95.7501 143.018 97.4636 142.357 99.6511 142.357C101.849 142.357 103.568 143.018 104.807 144.341C106.047 145.653 106.667 147.414 106.667 149.622V159.028C106.667 163.872 104.328 166.294 99.6511 166.294ZM99.6511 161.982C100.12 161.982 100.453 161.815 100.651 161.482C100.859 161.138 100.964 160.705 100.964 160.185V148.732C100.964 147.367 100.526 146.685 99.6511 146.685C98.7761 146.685 98.3386 147.367 98.3386 148.732V160.185C98.3386 160.705 98.4376 161.138 98.6355 161.482C98.8438 161.815 99.1824 161.982 99.6511 161.982ZM113.354 166.294C112.271 166.294 111.412 166.096 110.776 165.7C110.141 165.304 109.667 164.758 109.354 164.06C109.042 163.362 108.833 162.544 108.729 161.607C108.635 160.669 108.589 159.664 108.589 158.591V148.403C108.589 146.601 108.906 145.143 109.542 144.028C110.188 142.914 111.276 142.357 112.807 142.357C113.943 142.357 114.813 142.601 115.417 143.091C116.031 143.57 116.505 144.242 116.839 145.107V138.544H122.526V166.044H116.839V163.56C116.526 164.403 116.109 165.07 115.589 165.56C115.078 166.049 114.333 166.294 113.354 166.294ZM115.495 161.919C116.026 161.919 116.38 161.705 116.557 161.278C116.745 160.851 116.839 160.086 116.839 158.982V149.122C116.839 148.57 116.755 148.028 116.589 147.497C116.432 146.955 116.078 146.685 115.526 146.685C114.922 146.685 114.542 146.94 114.385 147.45C114.229 147.961 114.151 148.518 114.151 149.122V158.982C114.151 160.94 114.599 161.919 115.495 161.919ZM131.495 166.294C126.828 166.294 124.495 163.872 124.495 159.028V149.622C124.495 147.414 125.115 145.653 126.354 144.341C127.594 143.018 129.307 142.357 131.495 142.357C133.693 142.357 135.412 143.018 136.651 144.341C137.891 145.653 138.51 147.414 138.51 149.622V159.028C138.51 163.872 136.172 166.294 131.495 166.294ZM131.495 161.982C131.964 161.982 132.297 161.815 132.495 161.482C132.703 161.138 132.807 160.705 132.807 160.185V148.732C132.807 147.367 132.37 146.685 131.495 146.685C130.62 146.685 130.182 147.367 130.182 148.732V160.185C130.182 160.705 130.281 161.138 130.479 161.482C130.688 161.815 131.026 161.982 131.495 161.982ZM141.104 166.044V147.903H140.089V143.638H141.104V142.044C141.104 139.523 142.365 138.263 144.885 138.263C146.073 138.263 147.031 138.414 147.76 138.716V142.169C147.5 142.117 147.328 142.091 147.245 142.091C146.922 142.091 146.724 142.211 146.651 142.45C146.578 142.679 146.542 142.976 146.542 143.341V143.638H147.76V147.966H146.651V166.044H141.104ZM150.073 166.044V147.903H149.057V143.638H150.073V142.044C150.073 139.523 151.333 138.263 153.854 138.263C155.042 138.263 156 138.414 156.729 138.716V142.169C156.469 142.117 156.297 142.091 156.214 142.091C155.891 142.091 155.693 142.211 155.62 142.45C155.547 142.679 155.51 142.976 155.51 143.341V143.638H156.729V147.966H155.62V166.044H150.073ZM165.089 166.294C163.422 166.294 162.094 165.982 161.104 165.357C160.115 164.732 159.406 163.83 158.979 162.653C158.552 161.476 158.339 160.06 158.339 158.403V148.982C158.339 146.804 158.964 145.159 160.214 144.044C161.464 142.919 163.182 142.357 165.37 142.357C169.87 142.357 172.12 144.565 172.12 148.982V150.685C172.12 152.747 172.099 154.133 172.057 154.841H163.932V159.372C163.932 159.789 163.958 160.2 164.01 160.607C164.063 161.002 164.177 161.33 164.354 161.591C164.542 161.851 164.839 161.982 165.245 161.982C165.828 161.982 166.193 161.732 166.339 161.232C166.484 160.721 166.557 160.06 166.557 159.247V156.997H172.12V158.325C172.12 160.075 171.901 161.544 171.464 162.732C171.037 163.909 170.307 164.799 169.276 165.403C168.255 165.997 166.859 166.294 165.089 166.294ZM163.901 152.06H166.557V148.903C166.557 148.06 166.453 147.455 166.245 147.091C166.037 146.716 165.724 146.528 165.307 146.528C164.859 146.528 164.51 146.705 164.26 147.06C164.021 147.414 163.901 148.028 163.901 148.903V152.06Z" fill="white"/>
</svg>
