<svg width="256" height="260" viewBox="0 0 256 260" fill="none" xmlns="http://www.w3.org/2000/svg">
<path d="M127.86 0L142.675 39.6363L169.375 7.02747L170.701 49.396L206.392 27.3483L194.084 67.8578L234.899 58.7605L210.291 93.0211L251.807 97.86L217.565 122.159L255.282 140.41L215.118 152.114L244.95 181.799L203.215 179.64L221.929 217.542L183.147 201.754L188.714 243.766L157.087 216.06L148.905 257.63L127.86 221.007L106.815 257.63L98.6323 216.06L67.0051 243.766L72.5723 201.754L33.7902 217.542L52.5036 179.64L10.7692 181.799L40.6008 152.114L0.436707 140.41L38.1539 122.159L3.91247 97.86L45.4279 93.0211L20.8198 58.7605L61.6347 67.8578L49.3266 27.3483L85.018 49.396L86.3436 7.02747L113.044 39.6363L127.86 0Z" fill="#FFC567"/>
<path d="M101.369 121.044V93.544H108.634C110.155 93.544 111.358 93.8825 112.244 94.5596C113.139 95.2367 113.78 96.2003 114.166 97.4503C114.551 98.7003 114.744 100.19 114.744 101.919C114.744 103.586 114.582 105.039 114.259 106.278C113.936 107.508 113.358 108.461 112.525 109.138C111.702 109.815 110.53 110.153 109.009 110.153H106.775V121.044H101.369ZM106.775 105.216H107.087C108.108 105.216 108.733 104.929 108.962 104.357C109.192 103.784 109.306 102.94 109.306 101.825C109.306 100.784 109.192 99.9815 108.962 99.419C108.744 98.8461 108.218 98.5596 107.384 98.5596H106.775V105.216ZM122.962 121.294C121.296 121.294 119.968 120.982 118.978 120.357C117.988 119.732 117.28 118.83 116.853 117.653C116.426 116.476 116.212 115.06 116.212 113.403V103.982C116.212 101.804 116.837 100.159 118.087 99.044C119.337 97.919 121.056 97.3565 123.244 97.3565C127.744 97.3565 129.994 99.5648 129.994 103.982V105.685C129.994 107.747 129.973 109.133 129.931 109.841H121.806V114.372C121.806 114.789 121.832 115.2 121.884 115.607C121.936 116.002 122.051 116.33 122.228 116.591C122.416 116.851 122.712 116.982 123.119 116.982C123.702 116.982 124.067 116.732 124.212 116.232C124.358 115.721 124.431 115.06 124.431 114.247V111.997H129.994V113.325C129.994 115.075 129.775 116.544 129.337 117.732C128.91 118.909 128.181 119.799 127.15 120.403C126.129 120.997 124.733 121.294 122.962 121.294ZM121.775 107.06H124.431V103.903C124.431 103.06 124.327 102.455 124.119 102.091C123.91 101.716 123.598 101.528 123.181 101.528C122.733 101.528 122.384 101.705 122.134 102.06C121.895 102.414 121.775 103.028 121.775 103.903V107.06ZM136.837 121.294C135.327 121.294 134.306 120.976 133.775 120.341C133.254 119.695 132.994 118.711 132.994 117.388V102.778H131.416V98.5128H132.994V93.544H138.431V98.5128H140.009V102.778H138.431V116.075C138.431 116.461 138.494 116.732 138.619 116.888C138.744 117.044 138.983 117.122 139.337 117.122C139.587 117.122 139.811 117.101 140.009 117.06V120.872C139.884 120.914 139.494 120.992 138.837 121.107C138.181 121.232 137.514 121.294 136.837 121.294ZM148.369 121.294C146.702 121.294 145.374 120.982 144.384 120.357C143.395 119.732 142.686 118.83 142.259 117.653C141.832 116.476 141.619 115.06 141.619 113.403V103.982C141.619 101.804 142.244 100.159 143.494 99.044C144.744 97.919 146.462 97.3565 148.65 97.3565C153.15 97.3565 155.4 99.5648 155.4 103.982V105.685C155.4 107.747 155.379 109.133 155.337 109.841H147.212V114.372C147.212 114.789 147.238 115.2 147.291 115.607C147.343 116.002 147.457 116.33 147.634 116.591C147.822 116.851 148.119 116.982 148.525 116.982C149.108 116.982 149.473 116.732 149.619 116.232C149.764 115.721 149.837 115.06 149.837 114.247V111.997H155.4V113.325C155.4 115.075 155.181 116.544 154.744 117.732C154.317 118.909 153.587 119.799 152.556 120.403C151.535 120.997 150.139 121.294 148.369 121.294ZM147.181 107.06H149.837V103.903C149.837 103.06 149.733 102.455 149.525 102.091C149.317 101.716 149.004 101.528 148.587 101.528C148.139 101.528 147.791 101.705 147.541 102.06C147.301 102.414 147.181 103.028 147.181 103.903V107.06ZM69.4937 166.044L66.5405 138.544H71.9155L73.4312 155.903L74.978 138.544H80.103L81.5718 155.903L83.0405 138.544H88.478L85.478 166.044H78.8843L77.5093 152.81L76.1968 166.044H69.4937ZM90.0249 166.044V138.544H95.7749V144.935C96.077 144.06 96.5405 143.414 97.1655 142.997C97.7905 142.57 98.5197 142.357 99.353 142.357C100.978 142.357 102.16 142.867 102.9 143.888C103.639 144.909 104.009 146.278 104.009 147.997V166.044H98.353V148.357C98.353 147.846 98.2437 147.429 98.0249 147.107C97.8166 146.784 97.4832 146.622 97.0249 146.622C96.6395 146.622 96.3322 146.789 96.103 147.122C95.8843 147.455 95.7749 147.851 95.7749 148.31V166.044H90.0249ZM106.181 141.169V136.513H111.775V141.169H106.181ZM106.181 166.044V142.607H111.775V166.044H106.181ZM118.806 166.294C117.296 166.294 116.275 165.976 115.744 165.341C115.223 164.695 114.962 163.711 114.962 162.388V147.778H113.384V143.513H114.962V138.544H120.4V143.513H121.978V147.778H120.4V161.075C120.4 161.461 120.462 161.732 120.587 161.888C120.712 162.044 120.952 162.122 121.306 162.122C121.556 162.122 121.78 162.101 121.978 162.06V165.872C121.853 165.914 121.462 165.992 120.806 166.107C120.15 166.232 119.483 166.294 118.806 166.294ZM128.587 166.294C127.077 166.294 126.056 165.976 125.525 165.341C125.004 164.695 124.744 163.711 124.744 162.388V147.778H123.166V143.513H124.744V138.544H130.181V143.513H131.759V147.778H130.181V161.075C130.181 161.461 130.244 161.732 130.369 161.888C130.494 162.044 130.733 162.122 131.087 162.122C131.337 162.122 131.561 162.101 131.759 162.06V165.872C131.634 165.914 131.244 165.992 130.587 166.107C129.931 166.232 129.264 166.294 128.587 166.294ZM137.822 166.294C136.52 166.294 135.525 165.992 134.837 165.388C134.16 164.784 133.697 163.955 133.447 162.903C133.197 161.851 133.072 160.659 133.072 159.325C133.072 157.898 133.212 156.732 133.494 155.825C133.775 154.909 134.254 154.159 134.931 153.575C135.619 152.992 136.561 152.497 137.759 152.091L141.228 150.903V148.497C141.228 147.237 140.817 146.607 139.994 146.607C139.244 146.607 138.869 147.117 138.869 148.138V149.544H133.431C133.421 149.461 133.416 149.357 133.416 149.232C133.416 149.096 133.416 148.945 133.416 148.778C133.416 146.445 133.962 144.794 135.056 143.825C136.16 142.846 137.905 142.357 140.291 142.357C141.541 142.357 142.66 142.58 143.65 143.028C144.639 143.466 145.421 144.117 145.994 144.982C146.577 145.846 146.869 146.914 146.869 148.185V166.044H141.306V163.263C141.035 164.242 140.587 164.992 139.962 165.513C139.337 166.034 138.624 166.294 137.822 166.294ZM140.025 161.95C140.483 161.95 140.796 161.758 140.962 161.372C141.129 160.987 141.212 160.57 141.212 160.122V153.591C140.442 153.903 139.843 154.299 139.416 154.778C138.988 155.247 138.775 155.94 138.775 156.857V159.872C138.775 161.258 139.192 161.95 140.025 161.95ZM149.025 166.044V138.544H154.556V150.685L157.244 142.607H163.041L159.525 152.794L163.994 166.044H158.041L154.556 154.997V166.044H149.025ZM171.306 166.294C169.639 166.294 168.311 165.982 167.322 165.357C166.332 164.732 165.624 163.83 165.197 162.653C164.77 161.476 164.556 160.06 164.556 158.403V148.982C164.556 146.804 165.181 145.159 166.431 144.044C167.681 142.919 169.4 142.357 171.587 142.357C176.087 142.357 178.337 144.565 178.337 148.982V150.685C178.337 152.747 178.317 154.133 178.275 154.841H170.15V159.372C170.15 159.789 170.176 160.2 170.228 160.607C170.28 161.002 170.395 161.33 170.572 161.591C170.759 161.851 171.056 161.982 171.462 161.982C172.046 161.982 172.41 161.732 172.556 161.232C172.702 160.721 172.775 160.06 172.775 159.247V156.997H178.337V158.325C178.337 160.075 178.119 161.544 177.681 162.732C177.254 163.909 176.525 164.799 175.494 165.403C174.473 165.997 173.077 166.294 171.306 166.294ZM170.119 152.06H172.775V148.903C172.775 148.06 172.671 147.455 172.462 147.091C172.254 146.716 171.942 146.528 171.525 146.528C171.077 146.528 170.728 146.705 170.478 147.06C170.238 147.414 170.119 148.028 170.119 148.903V152.06ZM180.369 166.044V142.607H186.056V145.216C186.327 144.31 186.806 143.601 187.494 143.091C188.181 142.58 189.046 142.325 190.087 142.325V146.997C189.629 146.997 189.082 147.049 188.447 147.153C187.811 147.247 187.254 147.383 186.775 147.56C186.296 147.726 186.056 147.914 186.056 148.122V166.044H180.369Z" fill="white"/>
</svg>
