<svg width="256" height="260" viewBox="0 0 256 260" fill="none" xmlns="http://www.w3.org/2000/svg">
<path d="M127.86 3.05176e-05L142.675 39.6363L169.375 7.0275L170.701 49.396L206.392 27.3483L194.084 67.8579L234.899 58.7605L210.291 93.0211L251.807 97.86L217.565 122.159L255.282 140.41L215.118 152.114L244.95 181.799L203.215 179.64L221.929 217.542L183.147 201.754L188.714 243.766L157.087 216.06L148.905 257.63L127.86 221.008L106.815 257.63L98.6323 216.06L67.0051 243.766L72.5723 201.754L33.7902 217.542L52.5036 179.64L10.7692 181.799L40.6008 152.114L0.436707 140.41L38.1539 122.159L3.91247 97.86L45.4279 93.0211L20.8198 58.7605L61.6347 67.8579L49.3266 27.3483L85.018 49.396L86.3436 7.0275L113.044 39.6363L127.86 3.05176e-05Z" fill="#FF62AC"/>
<path d="M105.51 121.044V93.544H111.167L113.698 106.716V93.544H119.01V121.044H113.635L110.885 107.294V121.044H105.51ZM121.323 96.169V91.5128H126.917V96.169H121.323ZM121.323 121.044V97.6065H126.917V121.044H121.323ZM133.401 121.294C132.099 121.294 131.104 120.992 130.417 120.388C129.74 119.784 129.276 118.955 129.026 117.903C128.776 116.851 128.651 115.659 128.651 114.325C128.651 112.898 128.792 111.732 129.073 110.825C129.354 109.909 129.833 109.159 130.51 108.575C131.198 107.992 132.141 107.497 133.339 107.091L136.807 105.903V103.497C136.807 102.237 136.396 101.607 135.573 101.607C134.823 101.607 134.448 102.117 134.448 103.138V104.544H129.01C129 104.461 128.995 104.357 128.995 104.232C128.995 104.096 128.995 103.945 128.995 103.778C128.995 101.445 129.542 99.794 130.635 98.8253C131.74 97.8461 133.484 97.3565 135.87 97.3565C137.12 97.3565 138.24 97.5805 139.229 98.0284C140.219 98.4659 141 99.1169 141.573 99.9815C142.156 100.846 142.448 101.914 142.448 103.185V121.044H136.885V118.263C136.615 119.242 136.167 119.992 135.542 120.513C134.917 121.034 134.203 121.294 133.401 121.294ZM135.604 116.95C136.063 116.95 136.375 116.758 136.542 116.372C136.708 115.987 136.792 115.57 136.792 115.122V108.591C136.021 108.903 135.422 109.299 134.995 109.778C134.568 110.247 134.354 110.94 134.354 111.857V114.872C134.354 116.258 134.771 116.95 135.604 116.95ZM144.604 121.044V93.544H150.292V121.044H144.604ZM89.9949 166.294C86.0678 166.294 84.1042 163.482 84.1042 157.857V145.997C84.1042 140.862 86.3542 138.294 90.8542 138.294C92.7084 138.294 94.1303 138.669 95.1199 139.419C96.1095 140.159 96.7917 141.242 97.1667 142.669C97.5417 144.096 97.7292 145.836 97.7292 147.888H92.3542V145.45C92.3542 144.857 92.2709 144.362 92.1042 143.966C91.948 143.56 91.6147 143.357 91.1042 143.357C90.4688 143.357 90.047 143.57 89.8386 143.997C89.6407 144.424 89.5417 144.893 89.5417 145.403V158.732C89.5417 159.471 89.6355 160.075 89.823 160.544C90.0209 161.002 90.4011 161.232 90.9636 161.232C91.547 161.232 91.9324 161.002 92.1199 160.544C92.3178 160.075 92.4167 159.461 92.4167 158.7V154.778H90.948V150.028H97.6667V166.044H95.4636L94.5261 163.732C93.5678 165.44 92.0574 166.294 89.9949 166.294ZM99.7605 166.044V142.607H105.448V145.216C105.719 144.31 106.198 143.601 106.885 143.091C107.573 142.58 108.438 142.325 109.479 142.325V146.997C109.021 146.997 108.474 147.049 107.839 147.153C107.203 147.247 106.646 147.383 106.167 147.56C105.688 147.726 105.448 147.914 105.448 148.122V166.044H99.7605ZM110.823 141.169V136.513H116.417V141.169H110.823ZM110.823 166.044V142.607H116.417V166.044H110.823ZM118.635 166.044V142.607H124.104V145.325C124.354 144.367 124.781 143.633 125.385 143.122C125.99 142.612 126.875 142.357 128.042 142.357C128.979 142.357 129.776 142.575 130.432 143.013C131.099 143.44 131.568 144.008 131.839 144.716C132.266 143.945 132.766 143.362 133.339 142.966C133.922 142.56 134.75 142.357 135.823 142.357C137.125 142.357 138.125 142.638 138.823 143.2C139.531 143.752 140.021 144.523 140.292 145.513C140.573 146.492 140.714 147.627 140.714 148.919V166.044H135.135V148.825C135.135 147.315 134.75 146.56 133.979 146.56C133.573 146.56 133.26 146.7 133.042 146.982C132.823 147.252 132.672 147.591 132.589 147.997C132.505 148.403 132.464 148.81 132.464 149.216V166.044H126.885V148.825C126.885 148.336 126.823 147.846 126.698 147.357C126.583 146.867 126.281 146.622 125.792 146.622C125.375 146.622 125.052 146.773 124.823 147.075C124.594 147.377 124.438 147.752 124.354 148.2C124.271 148.638 124.229 149.07 124.229 149.497V166.044H118.635ZM149.479 166.294C147.813 166.294 146.484 165.982 145.495 165.357C144.505 164.732 143.797 163.83 143.37 162.653C142.943 161.476 142.729 160.06 142.729 158.403V148.982C142.729 146.804 143.354 145.159 144.604 144.044C145.854 142.919 147.573 142.357 149.76 142.357C154.26 142.357 156.51 144.565 156.51 148.982V150.685C156.51 152.747 156.49 154.133 156.448 154.841H148.323V159.372C148.323 159.789 148.349 160.2 148.401 160.607C148.453 161.002 148.568 161.33 148.745 161.591C148.932 161.851 149.229 161.982 149.635 161.982C150.219 161.982 150.583 161.732 150.729 161.232C150.875 160.721 150.948 160.06 150.948 159.247V156.997H156.51V158.325C156.51 160.075 156.292 161.544 155.854 162.732C155.427 163.909 154.698 164.799 153.667 165.403C152.646 165.997 151.25 166.294 149.479 166.294ZM148.292 152.06H150.948V148.903C150.948 148.06 150.844 147.455 150.635 147.091C150.427 146.716 150.115 146.528 149.698 146.528C149.25 146.528 148.901 146.705 148.651 147.06C148.412 147.414 148.292 148.028 148.292 148.903V152.06ZM164.964 166.294C160.339 166.294 158.026 163.95 158.026 159.263V157.403H163.651V160.153C163.651 160.685 163.755 161.101 163.964 161.403C164.172 161.705 164.505 161.857 164.964 161.857C165.776 161.857 166.182 161.247 166.182 160.028C166.182 159.008 165.969 158.247 165.542 157.747C165.115 157.237 164.594 156.747 163.979 156.278L160.995 153.982C160.057 153.252 159.344 152.482 158.854 151.669C158.365 150.857 158.12 149.726 158.12 148.278C158.12 146.935 158.438 145.825 159.073 144.95C159.719 144.075 160.568 143.424 161.62 142.997C162.682 142.57 163.828 142.357 165.057 142.357C169.599 142.357 171.87 144.622 171.87 149.153V149.591H166.089V148.7C166.089 148.232 166.005 147.778 165.839 147.341C165.682 146.903 165.37 146.685 164.901 146.685C164.109 146.685 163.714 147.101 163.714 147.935C163.714 148.778 164.047 149.44 164.714 149.919L168.182 152.45C169.266 153.232 170.172 154.159 170.901 155.232C171.641 156.304 172.01 157.732 172.01 159.513C172.01 161.721 171.38 163.403 170.12 164.56C168.87 165.716 167.151 166.294 164.964 166.294Z" fill="white"/>
</svg>
