<svg width="35" height="35" viewBox="0 0 35 35" fill="none" xmlns="http://www.w3.org/2000/svg">
<path d="M15.838 8.64899L17.9237 0.616702C18.1571 -0.281273 19.4651 -0.168142 19.5428 0.758116L20.2074 9.0308C20.2781 9.92171 21.2963 10.3954 22.0245 9.87928L28.7837 5.07123C29.5402 4.53386 30.4735 5.46011 29.9291 6.21668L25.1213 12.9762C24.6051 13.7045 25.0789 14.7227 25.9697 14.7934L34.2419 15.458C35.1681 15.5288 35.2813 16.8439 34.3833 17.0772L26.3515 19.1631C25.4889 19.3893 25.199 20.4712 25.8354 21.1004L31.7461 26.9267C32.4107 27.5772 31.6542 28.659 30.8128 28.256L23.3184 24.6923C22.5123 24.3105 21.5932 24.954 21.6781 25.8378L22.4629 34.0963C22.5477 35.0226 21.2821 35.362 20.8933 34.5135L17.443 26.9691C17.0682 26.156 15.9582 26.057 15.4491 26.7923L10.7403 33.6226C10.2101 34.3862 9.02227 33.8277 9.26973 32.9368L11.4757 24.9398C11.716 24.0772 10.9242 23.2853 10.0616 23.5257L2.06512 25.7317C1.1672 25.9792 0.615719 24.7843 1.37931 24.261L8.20919 19.552C8.9445 19.0429 8.84551 17.9257 8.03243 17.558L0.481384 14.1075C-0.359978 13.7187 -0.0206053 12.453 0.89853 12.5379L9.15661 13.3227C10.0475 13.4076 10.6909 12.4884 10.302 11.6823L6.73857 4.18739C6.34264 3.34598 7.41732 2.59649 8.06778 3.25406L13.8937 9.16515C14.5229 9.80151 15.6047 9.51161 15.8309 8.64899H15.838Z" fill="#FFFCEE"/>
</svg>
