<svg width="216" height="215" viewBox="0 0 216 215" fill="none" xmlns="http://www.w3.org/2000/svg">
<path d="M94.3798 70.1585C92.9023 70.6865 91.7041 70.6999 90.7852 70.1986C89.8725 69.6951 89.1291 68.6402 88.5551 67.034L87.9899 65.4523L91.1902 64.3087L91.9131 66.3318C92.0467 66.7058 92.2071 66.9804 92.3941 67.1555C92.5851 67.3223 92.8216 67.3553 93.1036 67.2546C93.3979 67.1494 93.5695 66.9913 93.6185 66.7802C93.6737 66.5669 93.6311 66.2641 93.4909 65.8717C93.3135 65.3751 93.1165 64.9788 92.9002 64.6828C92.6816 64.3807 92.396 64.1232 92.0434 63.9104C91.6948 63.6893 91.2336 63.4532 90.6598 63.2019L88.7139 62.3417C87.2629 61.7056 86.3019 60.7285 85.8309 59.4104C85.338 58.031 85.2811 56.8656 85.6602 55.9144C86.0454 54.9609 86.8449 54.2673 88.0588 53.8335C89.5425 53.3034 90.7352 53.3231 91.637 53.8927C92.545 54.4601 93.287 55.55 93.8632 57.1624L90.571 58.3388L90.1734 57.2261C90.0945 57.0054 89.9688 56.8567 89.7962 56.7801C89.6298 56.7013 89.4393 56.7002 89.2247 56.7769C88.9672 56.8689 88.8034 57.0104 88.7334 57.2014C88.6673 57.384 88.6748 57.5887 88.7558 57.8156C88.8369 58.0424 88.9858 58.2657 89.2027 58.4855C89.4195 58.7053 89.7701 58.9223 90.2545 59.1364L92.7621 60.2625C93.2631 60.4845 93.7412 60.7388 94.1963 61.0256C94.6491 61.3062 95.0648 61.6762 95.4433 62.1355C95.8195 62.5887 96.1424 63.1924 96.4119 63.9465C96.9552 65.4669 97.0992 66.7601 96.8441 67.8261C96.5929 68.8838 95.7715 69.6612 94.3798 70.1585ZM100.555 68.4366L97.878 51.3588L101.233 51.1959L102.706 61.9869L103.145 51.1031L106.345 50.9478L107.788 61.7402L108.178 50.8588L111.573 50.694L110.533 67.9522L106.417 68.152L105.158 59.932L104.739 68.2335L100.555 68.4366ZM113.189 67.9605L116.264 51.0502L119.531 51.6442L116.456 68.5544L113.189 67.9605ZM117.761 68.9297L123.8 52.8378L128.051 54.4332C128.941 54.7671 129.571 55.2294 129.94 55.82C130.316 56.413 130.479 57.1174 130.43 57.9335C130.381 58.7496 130.167 59.6636 129.787 60.6754C129.421 61.6507 129.008 62.4655 128.547 63.12C128.088 63.7683 127.54 64.1991 126.904 64.4123C126.274 64.6278 125.514 64.5686 124.624 64.2347L123.316 63.744L120.925 70.1168L117.761 68.9297ZM124.4 60.8548L124.583 60.9234C125.181 61.1476 125.609 61.1172 125.869 60.8323C126.129 60.5473 126.381 60.0788 126.626 59.4266C126.855 58.817 126.964 58.3225 126.953 57.9431C126.951 57.5598 126.706 57.2766 126.218 57.0937L125.862 56.9599L124.4 60.8548ZM126.513 72.3938L135.962 58.0363L141.705 61.8156L139.879 64.5892L137.057 62.7318L135.215 65.5298L137.924 67.3121L136.147 70.0123L133.438 68.23L131.275 71.5176L134.285 73.4985L132.444 76.2966L126.513 72.3938ZM138.983 83.5317C138.227 82.5447 137.924 81.5132 138.076 80.4374C138.232 79.3667 138.862 78.4076 139.968 77.5602L146.262 72.737C147.585 71.7233 148.798 71.2081 149.901 71.1914C151.008 71.18 152.014 71.766 152.921 72.9493C153.416 73.5953 153.737 74.26 153.883 74.9434C154.034 75.632 153.982 76.3031 153.728 76.9568C153.48 77.6066 152.996 78.2067 152.278 78.7571L149.922 80.5628L147.843 77.8498L149.858 76.3054C150.266 75.9926 150.501 75.7311 150.561 75.5208C150.626 75.3065 150.576 75.0909 150.41 74.8739C150.216 74.6207 149.992 74.5214 149.739 74.5761C149.49 74.6269 149.214 74.7691 148.909 75.0027L142.08 80.2358C141.703 80.5248 141.478 80.783 141.406 81.0104C141.338 81.2428 141.384 81.4624 141.542 81.6691C141.72 81.9017 141.941 81.9912 142.203 81.9377C142.47 81.8894 142.755 81.7484 143.06 81.5148L145.517 79.6318L147.62 82.3758L145.039 84.3538C143.84 85.2725 142.737 85.6375 141.732 85.4486C140.731 85.2559 139.815 84.6169 138.983 83.5317ZM142.086 87.4391L158.503 82.0873L160.834 87.4309L145.733 95.7991L144.433 92.8185L146.877 91.4856L146.049 89.588L143.421 90.5002L142.086 87.4391ZM148.662 88.7144L149.287 90.1465L156.997 85.962L156.934 85.8188L148.662 88.7144ZM145.97 96.7969L162.909 93.8839L163.803 99.081C163.952 99.9472 163.865 100.636 163.544 101.147C163.228 101.657 162.727 102.047 162.04 102.317C161.361 102.593 160.544 102.812 159.588 102.977C158.664 103.136 157.905 103.144 157.313 103.001C156.721 102.865 156.264 102.491 155.941 101.88C155.923 102.431 155.721 102.849 155.334 103.134C154.954 103.423 154.431 103.626 153.764 103.741L147.354 104.843L146.779 101.503L153.411 100.363C153.905 100.278 154.192 100.123 154.272 99.8976C154.36 99.6778 154.365 99.3432 154.288 98.8941L146.559 100.223L145.97 96.7969ZM157.226 98.4086L157.367 99.2266C157.448 99.695 157.998 99.8415 159.018 99.666C159.679 99.5524 160.103 99.4266 160.291 99.2886C160.479 99.1506 160.548 98.9405 160.5 98.6582L160.364 97.869L157.226 98.4086ZM147.399 106.178L164.543 107.391L164.21 112.106C164.122 113.34 163.712 114.244 162.98 114.819C162.254 115.394 161.232 115.635 159.913 115.542L151.887 114.974C150.263 114.859 149.03 114.484 148.187 113.85C147.344 113.223 146.973 112.198 147.073 110.776L147.399 106.178ZM150.184 109.841L150.142 110.435C150.098 111.065 150.381 111.401 150.991 111.444L159.836 112.071C160.408 112.111 160.78 112.059 160.953 111.915C161.133 111.777 161.239 111.475 161.272 111.007L161.299 110.627L150.184 109.841ZM145.133 119.798C145.611 118.303 146.328 117.343 147.285 116.918C148.239 116.499 149.529 116.549 151.153 117.069L152.753 117.581L151.717 120.818L149.671 120.163C149.293 120.042 148.977 120.003 148.724 120.045C148.476 120.095 148.306 120.263 148.215 120.548C148.12 120.846 148.141 121.078 148.279 121.245C148.415 121.419 148.681 121.569 149.078 121.696C149.58 121.857 150.015 121.941 150.381 121.949C150.754 121.959 151.132 121.888 151.515 121.738C151.903 121.595 152.37 121.372 152.918 121.069L154.784 120.046C156.171 119.28 157.531 119.11 158.864 119.537C160.259 119.983 161.219 120.646 161.744 121.525C162.268 122.41 162.333 123.466 161.94 124.694C161.46 126.195 160.72 127.13 159.719 127.5C158.717 127.877 157.401 127.804 155.77 127.282L156.835 123.953L157.961 124.313C158.184 124.384 158.378 124.375 158.544 124.284C158.708 124.2 158.824 124.049 158.894 123.832C158.977 123.572 158.964 123.356 158.855 123.184C158.75 123.021 158.583 122.902 158.354 122.829C158.124 122.755 157.856 122.738 157.55 122.777C157.244 122.815 156.858 122.962 156.394 123.217L153.976 124.525C153.495 124.788 153.003 125.013 152.499 125.2C152.001 125.389 151.454 125.495 150.86 125.516C150.271 125.54 149.595 125.43 148.833 125.186C147.295 124.694 146.18 124.022 145.488 123.172C144.801 122.33 144.682 121.205 145.133 119.798ZM124.298 143.343C125.715 142.668 126.905 142.533 127.87 142.939C128.829 143.348 129.676 144.322 130.409 145.862L131.132 147.378L128.064 148.84L127.14 146.9C126.969 146.542 126.782 146.285 126.578 146.129C126.371 145.983 126.132 145.974 125.862 146.103C125.58 146.237 125.425 146.412 125.398 146.627C125.364 146.844 125.437 147.141 125.617 147.518C125.843 147.994 126.079 148.368 126.325 148.641C126.573 148.919 126.883 149.146 127.255 149.322C127.624 149.507 128.107 149.695 128.703 149.887L130.726 150.546C132.234 151.032 133.289 151.907 133.891 153.17C134.521 154.493 134.696 155.646 134.415 156.631C134.128 157.619 133.403 158.39 132.239 158.944C130.817 159.622 129.629 159.723 128.674 159.247C127.713 158.775 126.864 157.766 126.128 156.22L129.284 154.716L129.792 155.783C129.893 155.995 130.033 156.13 130.213 156.188C130.386 156.25 130.576 156.232 130.782 156.134C131.028 156.016 131.177 155.859 131.227 155.662C131.275 155.473 131.246 155.27 131.143 155.053C131.039 154.835 130.868 154.628 130.631 154.432C130.393 154.235 130.022 154.055 129.518 153.891L126.909 153.024C126.389 152.854 125.887 152.649 125.405 152.41C124.926 152.177 124.475 151.851 124.052 151.432C123.632 151.019 123.25 150.452 122.905 149.729C122.211 148.271 121.937 146.999 122.083 145.913C122.225 144.835 122.964 143.978 124.298 143.343ZM118.332 145.679L122.72 162.399L119.399 162.9L116.844 152.313L117.506 163.185L114.339 163.663L111.813 153.072L112.523 163.937L109.163 164.444L108.454 147.169L112.529 146.554L114.612 154.605L114.19 146.304L118.332 145.679ZM105.811 147.427L104.409 164.557L101.099 164.286L102.502 147.156L105.811 147.427ZM101.165 146.912L96.772 163.529L92.3818 162.368C91.4629 162.125 90.79 161.729 90.3631 161.178C89.93 160.626 89.6968 159.941 89.6636 159.124C89.6304 158.308 89.7519 157.377 90.0281 156.332C90.2943 155.325 90.624 154.473 91.0171 153.775C91.4085 153.084 91.9101 152.6 92.5218 152.324C93.1272 152.047 93.8894 152.029 94.8083 152.272L96.1584 152.629L97.898 146.049L101.165 146.912ZM95.3697 155.613L95.1809 155.563C94.5641 155.4 94.1407 155.473 93.9107 155.782C93.6807 156.092 93.4767 156.584 93.2987 157.257C93.1323 157.886 93.0734 158.389 93.122 158.766C93.1627 159.147 93.4348 159.404 93.9383 159.537L94.3065 159.635L95.3697 155.613ZM92.1076 144.345L84.1773 159.594L78.0779 156.422L79.6099 153.476L82.6076 155.035L84.1531 152.063L81.2767 150.567L82.7681 147.699L85.6446 149.195L87.4604 145.704L84.2634 144.041L85.8089 141.069L92.1076 144.345ZM78.5946 134.501C79.4453 135.408 79.8487 136.404 79.8048 137.49C79.7565 138.571 79.2242 139.588 78.2081 140.541L72.4248 145.966C71.2092 147.106 70.0536 147.74 68.958 147.866C67.8579 147.987 66.7978 147.504 65.7778 146.417C65.2211 145.823 64.8359 145.194 64.6222 144.528C64.4041 143.858 64.3888 143.185 64.5762 142.51C64.7588 141.838 65.1802 141.193 65.8402 140.574L68.0054 138.543L70.3438 141.036L68.492 142.773C68.1169 143.125 67.9098 143.408 67.8707 143.623C67.8268 143.843 67.8984 144.053 68.0855 144.252C68.3037 144.485 68.5362 144.561 68.7829 144.482C69.0248 144.407 69.2858 144.238 69.5659 143.975L75.8407 138.089C76.1874 137.763 76.3851 137.484 76.434 137.251C76.4785 137.013 76.4116 136.799 76.2335 136.609C76.033 136.395 75.8049 136.328 75.549 136.407C75.2887 136.482 75.0185 136.651 74.7383 136.913L72.4805 139.031L70.1154 136.51L72.4871 134.285C73.5887 133.252 74.6494 132.779 75.6691 132.867C76.684 132.959 77.6592 133.504 78.5946 134.501ZM75.1184 130.921L59.322 137.896L56.4654 132.813L70.6493 122.97L72.2427 125.805L69.9446 127.377L70.959 129.182L73.4819 128.01L75.1184 130.921ZM68.4472 130.313L67.6816 128.951L60.4309 133.889L60.5074 134.025L68.4472 130.313ZM70.3138 122.001L53.751 126.593L52.3422 121.511C52.1074 120.664 52.1245 119.971 52.3934 119.43C52.6561 118.891 53.1157 118.453 53.772 118.115C54.4204 117.773 55.212 117.473 56.1468 117.214C57.0502 116.963 57.8039 116.879 58.4078 116.962C59.0099 117.038 59.5024 117.364 59.8851 117.941C59.8474 117.39 60.0068 116.954 60.3635 116.633C60.7122 116.306 61.2127 116.053 61.8652 115.872L68.1327 114.134L69.038 117.4L62.5541 119.197C62.071 119.331 61.8008 119.514 61.7436 119.746C61.6783 119.974 61.7065 120.307 61.8283 120.746L69.385 118.651L70.3138 122.001ZM58.9528 121.523L58.731 120.723C58.6041 120.265 58.0418 120.175 57.0443 120.451C56.3981 120.63 55.9885 120.798 55.8156 120.954C55.6426 121.11 55.5944 121.326 55.671 121.602L55.8849 122.374L58.9528 121.523ZM67.9547 112.811L50.7746 113.317L50.6356 108.592C50.5992 107.356 50.9168 106.415 51.5882 105.77C52.2531 105.125 53.2461 104.783 54.5671 104.744L62.6105 104.508C64.2374 104.46 65.5018 104.709 66.4037 105.256C67.3054 105.796 67.7772 106.779 67.8191 108.204L67.9547 112.811ZM64.8172 109.445L64.7997 108.85C64.7811 108.218 64.466 107.912 63.8543 107.93L54.9909 108.191C54.4183 108.207 54.0529 108.296 53.8948 108.457C53.73 108.612 53.6545 108.923 53.6683 109.392L53.6795 109.773L64.8172 109.445ZM68.8487 99.0332C68.5221 100.568 67.9043 101.595 66.9952 102.113C66.0874 102.626 64.7993 102.704 63.131 102.349L61.4881 102L62.1954 98.6758L64.2967 99.123C64.6852 99.2056 65.003 99.2134 65.2503 99.1462C65.4926 99.0712 65.6448 98.8873 65.7072 98.5944C65.7722 98.2887 65.7278 98.0596 65.5739 97.9071C65.4213 97.7481 65.1413 97.6253 64.7337 97.5386C64.2179 97.4288 63.7773 97.3883 63.4117 97.417C63.0398 97.4444 62.6707 97.5522 62.3045 97.7406C61.9333 97.9212 61.4901 98.1896 60.975 98.5459L59.2211 99.7503C57.9178 100.651 56.5816 100.956 55.2125 100.665C53.7798 100.36 52.7581 99.7961 52.1477 98.974C51.5385 98.1455 51.3681 97.1008 51.6364 95.84C51.9643 94.2989 52.6074 93.2943 53.5657 92.8259C54.5254 92.3512 55.8426 92.292 57.5173 92.6483L56.7897 96.0679L55.6339 95.822C55.4047 95.7732 55.2122 95.8021 55.0563 95.9087C54.9019 96.009 54.8009 96.1705 54.7535 96.3934C54.6966 96.6609 54.731 96.8745 54.8567 97.0344C54.9775 97.1866 55.1556 97.2877 55.3912 97.3378C55.6268 97.388 55.8951 97.3785 56.196 97.3094C56.4969 97.2403 56.8657 97.0559 57.3022 96.756L59.5774 95.2133C60.0294 94.9035 60.4969 94.6302 60.9799 94.3935C61.4566 94.1555 61.9897 93.996 62.5793 93.9152C63.1626 93.8329 63.8459 93.8752 64.6291 94.0418C66.2084 94.3779 67.3846 94.9343 68.1578 95.7112C68.926 96.4804 69.1563 97.5877 68.8487 99.0332Z" fill="#FFFCEE"/>
<circle cx="69.2585" cy="74.0248" r="4" transform="rotate(27.1707 69.2585 74.0248)" fill="#FFFCEE"/>
<circle cx="143.249" cy="140.104" r="4" transform="rotate(27.1707 143.249 140.104)" fill="#FFFCEE"/>
</svg>
