<svg width="473" height="32" viewBox="0 0 473 32" fill="none" xmlns="http://www.w3.org/2000/svg">
<path d="M7.70312 25.2656C7.85938 25.7865 7.80729 26.3021 7.54688 26.8125C7.28646 27.2917 6.90104 27.6094 6.39062 27.7656C5.81771 27.9323 5.27604 27.8646 4.76562 27.5625C4.33854 27.3229 4.05729 26.9583 3.92188 26.4688C3.51562 24.7708 3.23958 22.2135 3.09375 18.7969L3.0625 17.9844C2.90625 14.5365 2.79167 11.4948 2.71875 8.85938C2.69792 8.30729 2.875 7.83333 3.25 7.4375C3.625 7.03125 4.08333 6.81771 4.625 6.79688H4.70312H4.79688C5.30729 6.82812 5.74479 7.02604 6.10938 7.39062C6.47396 7.75521 6.66667 8.19271 6.6875 8.70312C6.78125 11.9635 6.89062 14.9635 7.01562 17.7031L7.03125 18C7.15625 20.9792 7.32812 23.1979 7.54688 24.6562C7.56771 24.7188 7.59375 24.8177 7.625 24.9531C7.65625 25.0885 7.68229 25.1927 7.70312 25.2656ZM30.1094 3.6875C30.5677 3.77083 30.9323 4.01042 31.2031 4.40625C31.474 4.79167 31.5729 5.21354 31.5 5.67188C31.2396 7.30729 30.8438 9.42188 30.3125 12.0156C29.7188 14.9219 29.125 17.3177 28.5312 19.2031C28.3542 19.7552 28.2083 20.1979 28.0938 20.5312C27.9792 20.8542 27.8021 21.25 27.5625 21.7188C27.3229 22.1875 27.0625 22.5833 26.7812 22.9062C26.3021 23.4271 25.7188 23.6979 25.0312 23.7188C24.625 23.7396 24.2448 23.6719 23.8906 23.5156C23.5885 23.3594 23.3229 23.1562 23.0938 22.9062C22.6667 22.4583 21.3281 20.4844 19.0781 16.9844C18.3594 15.849 17.9688 15.25 17.9062 15.1875C17.7396 14.9792 17.526 14.9115 17.2656 14.9844C17.0052 15.0573 16.8594 15.2292 16.8281 15.5L16.75 16.1875L16.4219 19.0469L16.4062 19.2812C16.0521 22.3542 15.8281 24.5833 15.7344 25.9688C15.651 26.4167 15.4167 26.7708 15.0312 27.0312C14.6562 27.3021 14.2292 27.3958 13.75 27.3125C13.3021 27.2396 12.9375 27.0052 12.6562 26.6094C12.3854 26.1927 12.2917 25.7552 12.375 25.2969C12.4896 23.6823 12.7083 21.4688 13.0312 18.6562L13.0625 18.3906C13.1875 17.2865 13.276 16.4531 13.3281 15.8906C13.5573 13.5365 13.7812 11.7188 14 10.4375C14.0625 9.82292 14.2656 9.27604 14.6094 8.79688C14.9219 8.43229 15.3177 8.25 15.7969 8.25H15.8125C16.4167 8.27083 16.9062 8.51562 17.2812 8.98438C17.9062 9.76562 19.7188 12.4115 22.7188 16.9219C23.3021 17.7969 23.6406 18.2969 23.7344 18.4219C23.9635 18.7031 24.25 18.8073 24.5938 18.7344C24.9271 18.6719 25.1406 18.4583 25.2344 18.0938C25.4115 17.375 25.5365 16.8854 25.6094 16.625C26.526 13.0312 27.0573 10.8646 27.2031 10.125C27.5885 8.16667 27.8958 6.47917 28.125 5.0625C28.2083 4.65625 28.4062 4.32292 28.7188 4.0625C29.0417 3.79167 29.4115 3.65625 29.8281 3.65625C29.8906 3.65625 29.9844 3.66667 30.1094 3.6875ZM52.3438 8.40625C52.4583 8.88542 52.3854 9.32812 52.125 9.73438C51.9062 10.1198 51.5677 10.3698 51.1094 10.4844C50.3594 10.651 49.5208 10.8802 48.5938 11.1719C48.1354 11.3073 47.6979 11.4635 47.2812 11.6406L47.1406 11.7031L45.875 12.2188L45.1562 12.5156L45.2188 13.0312C45.6771 17.5104 45.9219 21.7656 45.9531 25.7969C45.9531 26.2448 45.7865 26.6354 45.4531 26.9688C45.099 27.3229 44.6927 27.5 44.2344 27.5H44.2188C43.7396 27.4896 43.3333 27.3177 43 26.9844C42.6771 26.651 42.5156 26.2448 42.5156 25.7656C42.5052 22.4427 42.3229 18.8333 41.9688 14.9375L41.8906 13.9375L40.9844 14.375C40.6406 14.5417 40.1562 14.7865 39.5312 15.1094C38.9062 15.4219 38.5 15.625 38.3125 15.7188L37.7969 15.9844C37.4948 16.1615 37.1615 16.2344 36.7969 16.2031C36.4427 16.1719 36.1302 16.0417 35.8594 15.8125C35.5885 15.5833 35.401 15.3021 35.2969 14.9688C35.2031 14.625 35.2083 14.2865 35.3125 13.9531C35.4479 13.526 35.7083 13.2083 36.0938 13C37.1771 12.4479 38.3854 11.849 39.7188 11.2031L40.3594 10.8906C40.724 10.7135 41.4115 10.4062 42.4219 9.96875C42.6927 9.85417 43 9.71875 43.3438 9.5625C44.2917 9.15625 45.4479 8.69792 46.8125 8.1875C47.9479 7.76042 49.0938 7.41667 50.25 7.15625C50.3438 7.13542 50.4792 7.125 50.6562 7.125C51.0521 7.125 51.4062 7.24479 51.7188 7.48438C52.0312 7.71354 52.2396 8.02083 52.3438 8.40625ZM73.4219 25.125C73.7448 25.5 73.8385 25.9688 73.7031 26.5312C73.5781 27.0938 73.2708 27.4479 72.7812 27.5938C72.6667 27.6562 72.4844 27.6771 72.2344 27.6562C71.9844 27.625 71.7708 27.5938 71.5938 27.5625C71.4167 27.5312 71.1875 27.474 70.9062 27.3906C70.6354 27.2969 70.4115 27.2188 70.2344 27.1562C70.0677 27.0938 69.8594 27.0156 69.6094 26.9219C69.3698 26.8281 69.1927 26.7604 69.0781 26.7188C66.5573 25.8333 64.2292 24.5521 62.0938 22.875L62.25 25.4844C62.3333 25.9427 62.2552 26.3594 62.0156 26.7344C61.7656 27.099 61.375 27.3177 60.8438 27.3906C60.3229 27.4635 59.8802 27.375 59.5156 27.125C59.1823 26.9062 58.974 26.6042 58.8906 26.2188C58.849 25.7917 58.7812 25.1615 58.6875 24.3281C58.6042 23.4948 58.5417 22.8646 58.5 22.4375V22.3438C58.0938 18.4375 57.7604 15.3542 57.5 13.0938L57.4375 12.5938L56.9844 12.3594C56.901 12.3281 56.8333 12.2917 56.7812 12.25C56.4375 12 56.224 11.6771 56.1406 11.2812C56.0573 10.8958 56.1146 10.5312 56.3125 10.1875L56.6719 9.79688C58.7656 7.53646 61.1667 5.67188 63.875 4.20312C64.5 3.85938 65.1146 3.61458 65.7188 3.46875C66.3333 3.3125 66.974 3.30208 67.6406 3.4375C68.3073 3.5625 68.8802 3.86979 69.3594 4.35938C69.776 4.79688 70.0833 5.33854 70.2812 5.98438C70.4896 6.61979 70.5885 7.24479 70.5781 7.85938C70.5677 8.47396 70.4896 9.08333 70.3438 9.6875C69.4896 13.1146 67.9271 16.6302 65.6562 20.2344L65.4531 20.5938C65.3281 20.8333 65.3698 21.0312 65.5781 21.1875L65.9219 21.4375C66.349 21.75 66.8125 22.0312 67.3125 22.2812C67.8125 22.5312 68.4375 22.8177 69.1875 23.1406C69.9375 23.4531 70.4375 23.6667 70.6875 23.7812C70.8333 23.8438 71.1146 23.9531 71.5312 24.1094C71.9583 24.2656 72.2812 24.3958 72.5 24.5C72.8333 24.6354 73.1406 24.8438 73.4219 25.125ZM62.6562 18.6094C63.4688 17.2865 64.2448 15.849 64.9844 14.2969C65.8385 12.4948 66.526 10.6146 67.0469 8.65625L67.0625 8.59375C67.1458 8.11458 67.026 7.70312 66.7031 7.35938C66.3698 7.00521 65.9688 6.85417 65.5 6.90625C64.9062 7.02083 64.3802 7.28646 63.9219 7.70312C63.724 7.85938 63.3177 8.16667 62.7031 8.625C62.0885 9.07292 61.625 9.44271 61.3125 9.73438L61.0781 9.96875L60.625 10.4219L60.6875 10.875L61.7344 20.1094C61.724 20.0156 61.7812 19.8698 61.9062 19.6719C62.0312 19.4635 62.1771 19.25 62.3438 19.0312C62.5208 18.8021 62.625 18.6615 62.6562 18.6094ZM87.3906 11.5156C88.3385 11.9323 89.1302 12.5365 89.7656 13.3281C90.4115 14.1094 90.8594 14.974 91.1094 15.9219C91.3698 16.8594 91.4792 17.8385 91.4375 18.8594C91.4062 19.8698 91.2292 20.8542 90.9062 21.8125C90.5 23.0104 89.8958 24.0938 89.0938 25.0625C88.1667 26.1979 86.9219 26.9844 85.3594 27.4219C83.8073 27.8594 82.3438 27.8333 80.9688 27.3438C80.3125 27.1042 79.7448 26.7656 79.2656 26.3281C78.7969 25.8802 78.4323 25.3906 78.1719 24.8594C77.9219 24.3281 77.7396 23.7344 77.625 23.0781C77.5104 22.4219 77.4583 21.7812 77.4688 21.1562C77.4896 20.5312 77.5521 19.8854 77.6562 19.2188C77.8646 17.9583 78.1094 16.8438 78.3906 15.875C78.6719 14.8958 79.0781 14.0521 79.6094 13.3438C80.2656 12.4583 81.1354 11.8125 82.2188 11.4062C83.3125 11 84.4323 10.8698 85.5781 11.0156C86.1927 11.0885 86.7969 11.2552 87.3906 11.5156ZM87.7344 20.3125C88.1927 19.1771 88.25 18 87.9062 16.7812C87.7292 16.25 87.4427 15.776 87.0469 15.3594C86.6615 14.9427 86.2031 14.6302 85.6719 14.4219C84.8698 14.099 84.0938 14.151 83.3438 14.5781C82.9479 14.8073 82.5938 15.1146 82.2812 15.5C81.9792 15.875 81.7448 16.2396 81.5781 16.5938C81.4219 16.9479 81.2812 17.3906 81.1562 17.9219C81.0312 18.4531 80.9479 18.8698 80.9062 19.1719C80.8646 19.474 80.8177 19.875 80.7656 20.375C80.6198 21.7604 80.8854 22.7604 81.5625 23.375C82.0625 23.8125 82.6406 24.0208 83.2969 24C83.5885 24 83.8906 23.9583 84.2031 23.875C84.974 23.6667 85.6719 23.25 86.2969 22.625C86.9323 21.9896 87.4115 21.2188 87.7344 20.3125ZM125.938 8.40625C126.052 8.88542 125.979 9.32812 125.719 9.73438C125.5 10.1198 125.161 10.3698 124.703 10.4844C123.953 10.651 123.115 10.8802 122.188 11.1719C121.729 11.3073 121.292 11.4635 120.875 11.6406L120.734 11.7031L119.469 12.2188L118.75 12.5156L118.812 13.0312C119.271 17.5104 119.516 21.7656 119.547 25.7969C119.547 26.2448 119.38 26.6354 119.047 26.9688C118.693 27.3229 118.286 27.5 117.828 27.5H117.812C117.333 27.4896 116.927 27.3177 116.594 26.9844C116.271 26.651 116.109 26.2448 116.109 25.7656C116.099 22.4427 115.917 18.8333 115.562 14.9375L115.484 13.9375L114.578 14.375C114.234 14.5417 113.75 14.7865 113.125 15.1094C112.5 15.4219 112.094 15.625 111.906 15.7188L111.391 15.9844C111.089 16.1615 110.755 16.2344 110.391 16.2031C110.036 16.1719 109.724 16.0417 109.453 15.8125C109.182 15.5833 108.995 15.3021 108.891 14.9688C108.797 14.625 108.802 14.2865 108.906 13.9531C109.042 13.526 109.302 13.2083 109.688 13C110.771 12.4479 111.979 11.849 113.312 11.2031L113.953 10.8906C114.318 10.7135 115.005 10.4062 116.016 9.96875C116.286 9.85417 116.594 9.71875 116.938 9.5625C117.885 9.15625 119.042 8.69792 120.406 8.1875C121.542 7.76042 122.688 7.41667 123.844 7.15625C123.938 7.13542 124.073 7.125 124.25 7.125C124.646 7.125 125 7.24479 125.312 7.48438C125.625 7.71354 125.833 8.02083 125.938 8.40625ZM139.609 11.5156C140.557 11.9323 141.349 12.5365 141.984 13.3281C142.63 14.1094 143.078 14.974 143.328 15.9219C143.589 16.8594 143.698 17.8385 143.656 18.8594C143.625 19.8698 143.448 20.8542 143.125 21.8125C142.719 23.0104 142.115 24.0938 141.312 25.0625C140.385 26.1979 139.141 26.9844 137.578 27.4219C136.026 27.8594 134.562 27.8333 133.188 27.3438C132.531 27.1042 131.964 26.7656 131.484 26.3281C131.016 25.8802 130.651 25.3906 130.391 24.8594C130.141 24.3281 129.958 23.7344 129.844 23.0781C129.729 22.4219 129.677 21.7812 129.688 21.1562C129.708 20.5312 129.771 19.8854 129.875 19.2188C130.083 17.9583 130.328 16.8438 130.609 15.875C130.891 14.8958 131.297 14.0521 131.828 13.3438C132.484 12.4583 133.354 11.8125 134.438 11.4062C135.531 11 136.651 10.8698 137.797 11.0156C138.411 11.0885 139.016 11.2552 139.609 11.5156ZM139.953 20.3125C140.411 19.1771 140.469 18 140.125 16.7812C139.948 16.25 139.661 15.776 139.266 15.3594C138.88 14.9427 138.422 14.6302 137.891 14.4219C137.089 14.099 136.312 14.151 135.562 14.5781C135.167 14.8073 134.812 15.1146 134.5 15.5C134.198 15.875 133.964 16.2396 133.797 16.5938C133.641 16.9479 133.5 17.3906 133.375 17.9219C133.25 18.4531 133.167 18.8698 133.125 19.1719C133.083 19.474 133.036 19.875 132.984 20.375C132.839 21.7604 133.104 22.7604 133.781 23.375C134.281 23.8125 134.859 24.0208 135.516 24C135.807 24 136.109 23.9583 136.422 23.875C137.193 23.6667 137.891 23.25 138.516 22.625C139.151 21.9896 139.63 21.2188 139.953 20.3125ZM175.078 24.8125C175.38 25.1458 175.521 25.5365 175.5 25.9844C175.448 26.9219 174.781 27.4375 173.5 27.5312C171.927 27.625 170.901 27.6771 170.422 27.6875C168.505 27.7292 166.958 27.5417 165.781 27.125C165.021 26.8958 164.411 26.474 163.953 25.8594C163.505 25.0677 163.422 24.25 163.703 23.4062C163.995 22.5104 164.375 21.6823 164.844 20.9219C164.885 20.849 164.979 20.6771 165.125 20.4062C165.281 20.1354 165.396 19.9271 165.469 19.7812C165.625 19.4792 165.854 19.026 166.156 18.4219C166.469 17.8177 166.703 17.3646 166.859 17.0625L166.938 16.9219L167.266 16.25C167.286 16.1875 167.328 16.099 167.391 15.9844C167.453 15.8594 167.495 15.7656 167.516 15.7031C167.682 15.3177 167.62 14.9583 167.328 14.625C167.036 14.3021 166.688 14.2083 166.281 14.3438C166.219 14.3646 166.146 14.3906 166.062 14.4219C165.99 14.4427 165.906 14.4688 165.812 14.5C165.719 14.5208 165.641 14.5417 165.578 14.5625C165.172 14.7292 164.458 15.0469 163.438 15.5156C163.031 15.724 162.599 15.7604 162.141 15.625C161.734 15.4896 161.427 15.224 161.219 14.8281C161 14.401 160.974 13.9635 161.141 13.5156C161.276 13.1094 161.526 12.8177 161.891 12.6406C163.161 12.0156 164.484 11.5 165.859 11.0938L166.797 10.8281C167.099 10.7552 167.354 10.6979 167.562 10.6562H167.594C168.01 10.5833 168.37 10.5469 168.672 10.5469C169.047 10.5469 169.411 10.6198 169.766 10.7656C169.995 10.8594 170.182 10.9531 170.328 11.0469C170.495 11.1823 170.656 11.3281 170.812 11.4844C171.052 11.7969 171.203 12.0885 171.266 12.3594L171.297 12.4688C171.318 12.5104 171.339 12.5729 171.359 12.6562L171.375 12.8438C171.417 13.1354 171.432 13.4323 171.422 13.7344C171.339 14.5573 171.161 15.3229 170.891 16.0312C170.734 16.4479 170.453 17.0625 170.047 17.875C169.714 18.5625 169.307 19.3229 168.828 20.1562C168.339 21.0312 168.031 21.5938 167.906 21.8438L167.891 21.8281L167.812 22C167.792 22.0521 167.74 22.1615 167.656 22.3281C167.573 22.4948 167.51 22.625 167.469 22.7188C167.302 23.0833 167.318 23.4323 167.516 23.7656C167.714 24.099 168.005 24.2917 168.391 24.3438C169.089 24.4062 169.786 24.4219 170.484 24.3906C170.557 24.3906 170.656 24.3906 170.781 24.3906C170.906 24.3802 171.005 24.375 171.078 24.375C171.328 24.375 171.693 24.3542 172.172 24.3125C173.297 24.2292 174.047 24.25 174.422 24.375C174.703 24.4792 174.922 24.625 175.078 24.8125ZM194.125 21.4062C194.458 21.6042 194.708 21.8802 194.875 22.2344C195.052 22.5781 195.115 22.9427 195.062 23.3281C195.01 23.7135 194.849 24.0521 194.578 24.3438C194.318 24.625 194 24.8125 193.625 24.9062C192.156 25.2917 190.099 25.776 187.453 26.3594C186.255 26.6406 185.12 26.8333 184.047 26.9375C183.339 27.0312 182.641 27.0156 181.953 26.8906C181.464 26.776 181.01 26.5885 180.594 26.3281C180.229 26.099 179.927 25.7917 179.688 25.4062C179.583 25.1771 179.484 24.9323 179.391 24.6719C179.286 24.151 179.234 23.5938 179.234 23C179.245 22.5 179.276 22.0365 179.328 21.6094C179.464 20.2031 179.604 18.8958 179.75 17.6875C179.771 17.4583 179.807 17.1198 179.859 16.6719C179.911 16.2135 179.953 15.875 179.984 15.6562C180.141 14.25 180.375 11.9635 180.688 8.79688C180.688 8.13021 180.953 7.59896 181.484 7.20312C181.891 6.92188 182.312 6.80208 182.75 6.84375L182.891 6.85938L183.031 6.79688L183.406 6.65625C184.99 6.10417 186.651 5.51562 188.391 4.89062C190.078 4.27604 191.531 3.76042 192.75 3.34375C193.25 3.22917 193.719 3.30208 194.156 3.5625C194.615 3.83333 194.906 4.22396 195.031 4.73438C195.167 5.24479 195.104 5.72917 194.844 6.1875C194.542 6.65625 194.135 6.95312 193.625 7.07812C190.01 8.32812 187.167 9.33333 185.094 10.0938C184.875 10.1667 184.693 10.2969 184.547 10.4844C184.401 10.6719 184.318 10.8854 184.297 11.125C184.266 11.3542 184.224 11.6927 184.172 12.1406C184.13 12.5885 184.099 12.9219 184.078 13.1406C184.047 13.4635 184.156 13.724 184.406 13.9219C184.646 14.1094 184.922 14.151 185.234 14.0469C186.443 13.6094 187.547 13.2396 188.547 12.9375C190.026 12.5 191.219 12.1771 192.125 11.9688C192.302 11.9375 192.458 11.9271 192.594 11.9375C193.021 11.9896 193.391 12.1667 193.703 12.4688C194.016 12.7708 194.214 13.1354 194.297 13.5625C194.38 14.0938 194.271 14.5677 193.969 14.9844C193.656 15.4115 193.234 15.6719 192.703 15.7656C189.651 16.4115 186.75 17.4531 184 18.8906C183.552 19.0781 183.328 19.4219 183.328 19.9219L183.141 21.4688C183.057 21.9583 183.203 22.3646 183.578 22.6875C183.849 22.9167 184.24 23.0365 184.75 23.0469C185.26 23.0469 185.75 22.9948 186.219 22.8906C186.698 22.776 187.323 22.599 188.094 22.3594C188.573 22.2135 188.818 22.1406 188.828 22.1406C190.016 21.8698 191.302 21.5573 192.688 21.2031C193.208 21.0677 193.688 21.1354 194.125 21.4062ZM224.625 7.65625C224.823 8.07292 224.828 8.51562 224.641 8.98438C224.464 9.44271 224.161 9.82292 223.734 10.125C223.318 10.4167 222.797 10.6979 222.172 10.9688C221.755 11.1458 221.297 11.3854 220.797 11.6875C220.536 11.8333 220.349 12.0417 220.234 12.3125C220.13 12.6458 220.255 13.0365 220.609 13.4844C221.745 14.9323 222.5 16.5052 222.875 18.2031C223.26 19.901 223.214 21.4792 222.734 22.9375C222.391 24.0104 221.802 24.9531 220.969 25.7656C220.146 26.5781 219.203 27.1562 218.141 27.5C217.089 27.8333 216.068 27.8698 215.078 27.6094C214.161 27.401 213.432 26.9219 212.891 26.1719C212.641 25.8177 212.505 25.4271 212.484 25C212.464 24.5625 212.562 24.1562 212.781 23.7812C213.042 23.4167 213.396 23.1927 213.844 23.1094C213.906 23.099 213.995 23.0938 214.109 23.0938C214.391 23.0938 214.635 23.1667 214.844 23.3125C214.969 23.4062 215.094 23.526 215.219 23.6719C215.438 23.9427 215.703 24.151 216.016 24.2969C216.578 24.5365 217.214 24.4062 217.922 23.9062C218.328 23.6146 218.667 23.3021 218.938 22.9688C219.219 22.6354 219.411 22.2812 219.516 21.9062C219.63 21.5312 219.708 21.1771 219.75 20.8438C219.802 20.5 219.776 20.1146 219.672 19.6875C219.568 19.25 219.469 18.8802 219.375 18.5781C219.292 18.2656 219.135 17.8802 218.906 17.4219C218.688 16.9635 218.51 16.6146 218.375 16.375C218.25 16.125 218.062 15.776 217.812 15.3281C217.792 15.2969 217.729 15.1927 217.625 15.0156C217.531 14.8385 217.458 14.7031 217.406 14.6094C217.208 14.2448 217.042 13.9219 216.906 13.6406C216.781 13.349 216.672 13.0417 216.578 12.7188C216.484 12.3854 216.438 12.0677 216.438 11.7656C216.448 11.4635 216.516 11.1823 216.641 10.9219C217.005 10.2969 217.469 9.81771 218.031 9.48438C218.958 8.82812 219.906 8.22917 220.875 7.6875C221.49 7.29167 222.172 7.03646 222.922 6.92188C223.62 6.83854 224.177 7.06771 224.594 7.60938L224.625 7.65625ZM247.234 23.3281C247.505 24.0156 247.401 24.651 246.922 25.2344C246.495 25.651 246 25.9427 245.438 26.1094C242.938 27.0781 240.505 27.599 238.141 27.6719C235.786 27.7448 233.719 27.3646 231.938 26.5312C231.208 26.2292 230.573 25.7917 230.031 25.2188C229.5 24.6354 229.099 23.974 228.828 23.2344C228.505 22.2969 228.427 21.2448 228.594 20.0781C228.771 18.901 229.167 17.7188 229.781 16.5312C230.896 14.5104 232.312 12.7656 234.031 11.2969C235.74 9.68229 237.682 8.41667 239.859 7.5C240.599 7.17708 241.365 7 242.156 6.96875C242.5 6.96875 242.828 7.02083 243.141 7.125C243.755 7.34375 244.203 7.72917 244.484 8.28125C244.682 8.65625 244.714 9.05208 244.578 9.46875C244.391 10.0104 243.901 10.4375 243.109 10.75L242.891 10.8438C242.005 11.2083 241.276 11.5156 240.703 11.7656C240.141 12.0156 239.453 12.3698 238.641 12.8281C237.828 13.2865 237.172 13.7396 236.672 14.1875C235.599 15.1458 234.755 16.026 234.141 16.8281C233.536 17.6302 233.073 18.5625 232.75 19.625C232.521 20.2604 232.453 20.8906 232.547 21.5156C232.724 22.4635 233.531 23.0938 234.969 23.4062C237.26 23.9271 239.958 23.6615 243.062 22.6094L243.156 22.5781C243.531 22.4531 243.812 22.3646 244 22.3125C244.188 22.2604 244.438 22.2031 244.75 22.1406C245.062 22.0677 245.344 22.0417 245.594 22.0625C245.844 22.0833 246.078 22.1458 246.297 22.25C246.755 22.4688 247.068 22.8281 247.234 23.3281ZM266.281 19C266.292 19.2188 266.349 20.2188 266.453 22C266.568 23.7708 266.589 25.125 266.516 26.0625C266.495 26.4062 266.427 26.7292 266.312 27.0312C265.99 27.6042 265.5 27.875 264.844 27.8438C264.323 27.8438 263.885 27.6562 263.531 27.2812C263.312 27.0625 263.161 26.7969 263.078 26.4844V26.4062C263.068 26.3438 263.057 26.2604 263.047 26.1562C263.036 26.0417 263.026 25.9583 263.016 25.9062C262.828 24.3958 262.693 22.0833 262.609 18.9688L262.594 18.6875C262.573 18.3646 262.406 18.1302 262.094 17.9844C261.927 17.9531 261.776 17.9583 261.641 18C259.984 18.3333 258.286 18.5573 256.547 18.6719C256.234 18.6927 255.984 18.8125 255.797 19.0312C255.609 19.25 255.531 19.5156 255.562 19.8281L255.578 20.0625C255.589 20.125 255.599 20.2083 255.609 20.3125C255.62 20.4167 255.63 20.5156 255.641 20.6094C255.651 20.6927 255.661 20.776 255.672 20.8594C255.839 22.1406 256 23.1406 256.156 23.8594C256.281 24.349 256.214 24.8177 255.953 25.2656C255.703 25.7031 255.333 25.9896 254.844 26.125C254.302 26.2396 253.812 26.1562 253.375 25.875C252.958 25.625 252.703 25.276 252.609 24.8281C252.359 23.6406 252.099 21.7969 251.828 19.2969L251.734 18.4531C251.505 16.4219 251.286 14.224 251.078 11.8594C251.099 11.3698 251.286 10.9531 251.641 10.6094C252.005 10.2656 252.432 10.0938 252.922 10.0938C253.318 10.0938 253.677 10.2135 254 10.4531C254.531 10.8594 254.786 11.3802 254.766 12.0156C254.776 12.2031 254.797 12.474 254.828 12.8281C254.87 13.1823 254.901 13.4479 254.922 13.625L254.969 14.25C254.99 14.4792 255.089 14.6667 255.266 14.8125C255.443 14.9583 255.646 15.026 255.875 15.0156C256.531 14.9635 258.5 14.7135 261.781 14.2656C261.969 14.2344 262.12 14.1458 262.234 14C262.359 13.8542 262.417 13.6875 262.406 13.5C262.323 11.6667 262.24 10.1146 262.156 8.84375C262.135 8.40625 262.286 8.02604 262.609 7.70312C262.984 7.29688 263.448 7.08333 264 7.0625C264.521 7.0625 264.958 7.25 265.312 7.625C265.667 8.01042 265.844 8.45312 265.844 8.95312C266.042 11.9948 266.177 14.9219 266.25 17.7344L266.281 19ZM288.266 3.6875C288.724 3.77083 289.089 4.01042 289.359 4.40625C289.63 4.79167 289.729 5.21354 289.656 5.67188C289.396 7.30729 289 9.42188 288.469 12.0156C287.875 14.9219 287.281 17.3177 286.688 19.2031C286.51 19.7552 286.365 20.1979 286.25 20.5312C286.135 20.8542 285.958 21.25 285.719 21.7188C285.479 22.1875 285.219 22.5833 284.938 22.9062C284.458 23.4271 283.875 23.6979 283.188 23.7188C282.781 23.7396 282.401 23.6719 282.047 23.5156C281.745 23.3594 281.479 23.1562 281.25 22.9062C280.823 22.4583 279.484 20.4844 277.234 16.9844C276.516 15.849 276.125 15.25 276.062 15.1875C275.896 14.9792 275.682 14.9115 275.422 14.9844C275.161 15.0573 275.016 15.2292 274.984 15.5L274.906 16.1875L274.578 19.0469L274.562 19.2812C274.208 22.3542 273.984 24.5833 273.891 25.9688C273.807 26.4167 273.573 26.7708 273.188 27.0312C272.812 27.3021 272.385 27.3958 271.906 27.3125C271.458 27.2396 271.094 27.0052 270.812 26.6094C270.542 26.1927 270.448 25.7552 270.531 25.2969C270.646 23.6823 270.865 21.4688 271.188 18.6562L271.219 18.3906C271.344 17.2865 271.432 16.4531 271.484 15.8906C271.714 13.5365 271.938 11.7188 272.156 10.4375C272.219 9.82292 272.422 9.27604 272.766 8.79688C273.078 8.43229 273.474 8.25 273.953 8.25H273.969C274.573 8.27083 275.062 8.51562 275.438 8.98438C276.062 9.76562 277.875 12.4115 280.875 16.9219C281.458 17.7969 281.797 18.2969 281.891 18.4219C282.12 18.7031 282.406 18.8073 282.75 18.7344C283.083 18.6719 283.297 18.4583 283.391 18.0938C283.568 17.375 283.693 16.8854 283.766 16.625C284.682 13.0312 285.214 10.8646 285.359 10.125C285.745 8.16667 286.052 6.47917 286.281 5.0625C286.365 4.65625 286.562 4.32292 286.875 4.0625C287.198 3.79167 287.568 3.65625 287.984 3.65625C288.047 3.65625 288.141 3.66667 288.266 3.6875ZM298.359 25.2656C298.526 25.7969 298.479 26.3125 298.219 26.8125C297.958 27.2917 297.573 27.6094 297.062 27.7656C296.49 27.9323 295.948 27.8646 295.438 27.5625C294.99 27.3125 294.703 26.9479 294.578 26.4688C294.182 24.8229 293.911 22.2656 293.766 18.7969L293.734 17.9844C293.578 14.5365 293.464 11.4948 293.391 8.85938C293.37 8.30729 293.547 7.83333 293.922 7.4375C294.297 7.03125 294.755 6.81771 295.297 6.79688H295.359H295.469C295.979 6.82812 296.417 7.02604 296.781 7.39062C297.146 7.75521 297.339 8.19271 297.359 8.70312C297.453 11.9635 297.562 14.9635 297.688 17.7031L297.703 18C297.828 20.9792 298 23.1979 298.219 24.6562L298.359 25.2656ZM319.281 8.40625C319.396 8.88542 319.323 9.32812 319.062 9.73438C318.844 10.1198 318.505 10.3698 318.047 10.4844C317.297 10.651 316.458 10.8802 315.531 11.1719C315.073 11.3073 314.635 11.4635 314.219 11.6406L314.078 11.7031L312.812 12.2188L312.094 12.5156L312.156 13.0312C312.615 17.5104 312.859 21.7656 312.891 25.7969C312.891 26.2448 312.724 26.6354 312.391 26.9688C312.036 27.3229 311.63 27.5 311.172 27.5H311.156C310.677 27.4896 310.271 27.3177 309.938 26.9844C309.615 26.651 309.453 26.2448 309.453 25.7656C309.443 22.4427 309.26 18.8333 308.906 14.9375L308.828 13.9375L307.922 14.375C307.578 14.5417 307.094 14.7865 306.469 15.1094C305.844 15.4219 305.438 15.625 305.25 15.7188L304.734 15.9844C304.432 16.1615 304.099 16.2344 303.734 16.2031C303.38 16.1719 303.068 16.0417 302.797 15.8125C302.526 15.5833 302.339 15.3021 302.234 14.9688C302.141 14.625 302.146 14.2865 302.25 13.9531C302.385 13.526 302.646 13.2083 303.031 13C304.115 12.4479 305.323 11.849 306.656 11.2031L307.297 10.8906C307.661 10.7135 308.349 10.4062 309.359 9.96875C309.63 9.85417 309.938 9.71875 310.281 9.5625C311.229 9.15625 312.385 8.69792 313.75 8.1875C314.885 7.76042 316.031 7.41667 317.188 7.15625C317.281 7.13542 317.417 7.125 317.594 7.125C317.99 7.125 318.344 7.24479 318.656 7.48438C318.969 7.71354 319.177 8.02083 319.281 8.40625ZM337.078 24.8125C337.38 25.1458 337.521 25.5365 337.5 25.9844C337.448 26.9219 336.781 27.4375 335.5 27.5312C333.927 27.625 332.901 27.6771 332.422 27.6875C330.505 27.7292 328.958 27.5417 327.781 27.125C327.021 26.8958 326.411 26.474 325.953 25.8594C325.505 25.0677 325.422 24.25 325.703 23.4062C325.995 22.5104 326.375 21.6823 326.844 20.9219C326.885 20.849 326.979 20.6771 327.125 20.4062C327.281 20.1354 327.396 19.9271 327.469 19.7812C327.625 19.4792 327.854 19.026 328.156 18.4219C328.469 17.8177 328.703 17.3646 328.859 17.0625L328.938 16.9219L329.266 16.25C329.286 16.1875 329.328 16.099 329.391 15.9844C329.453 15.8594 329.495 15.7656 329.516 15.7031C329.682 15.3177 329.62 14.9583 329.328 14.625C329.036 14.3021 328.688 14.2083 328.281 14.3438C328.219 14.3646 328.146 14.3906 328.062 14.4219C327.99 14.4427 327.906 14.4688 327.812 14.5C327.719 14.5208 327.641 14.5417 327.578 14.5625C327.172 14.7292 326.458 15.0469 325.438 15.5156C325.031 15.724 324.599 15.7604 324.141 15.625C323.734 15.4896 323.427 15.224 323.219 14.8281C323 14.401 322.974 13.9635 323.141 13.5156C323.276 13.1094 323.526 12.8177 323.891 12.6406C325.161 12.0156 326.484 11.5 327.859 11.0938L328.797 10.8281C329.099 10.7552 329.354 10.6979 329.562 10.6562H329.594C330.01 10.5833 330.37 10.5469 330.672 10.5469C331.047 10.5469 331.411 10.6198 331.766 10.7656C331.995 10.8594 332.182 10.9531 332.328 11.0469C332.495 11.1823 332.656 11.3281 332.812 11.4844C333.052 11.7969 333.203 12.0885 333.266 12.3594L333.297 12.4688C333.318 12.5104 333.339 12.5729 333.359 12.6562L333.375 12.8438C333.417 13.1354 333.432 13.4323 333.422 13.7344C333.339 14.5573 333.161 15.3229 332.891 16.0312C332.734 16.4479 332.453 17.0625 332.047 17.875C331.714 18.5625 331.307 19.3229 330.828 20.1562C330.339 21.0312 330.031 21.5938 329.906 21.8438L329.891 21.8281L329.812 22C329.792 22.0521 329.74 22.1615 329.656 22.3281C329.573 22.4948 329.51 22.625 329.469 22.7188C329.302 23.0833 329.318 23.4323 329.516 23.7656C329.714 24.099 330.005 24.2917 330.391 24.3438C331.089 24.4062 331.786 24.4219 332.484 24.3906C332.557 24.3906 332.656 24.3906 332.781 24.3906C332.906 24.3802 333.005 24.375 333.078 24.375C333.328 24.375 333.693 24.3542 334.172 24.3125C335.297 24.2292 336.047 24.25 336.422 24.375C336.703 24.4792 336.922 24.625 337.078 24.8125ZM356.125 21.4062C356.458 21.6042 356.708 21.8802 356.875 22.2344C357.052 22.5781 357.115 22.9427 357.062 23.3281C357.01 23.7135 356.849 24.0521 356.578 24.3438C356.318 24.625 356 24.8125 355.625 24.9062C354.156 25.2917 352.099 25.776 349.453 26.3594C348.255 26.6406 347.12 26.8333 346.047 26.9375C345.339 27.0312 344.641 27.0156 343.953 26.8906C343.464 26.776 343.01 26.5885 342.594 26.3281C342.229 26.099 341.927 25.7917 341.688 25.4062C341.583 25.1771 341.484 24.9323 341.391 24.6719C341.286 24.151 341.234 23.5938 341.234 23C341.245 22.5 341.276 22.0365 341.328 21.6094C341.464 20.2031 341.604 18.8958 341.75 17.6875C341.771 17.4583 341.807 17.1198 341.859 16.6719C341.911 16.2135 341.953 15.875 341.984 15.6562C342.141 14.25 342.375 11.9635 342.688 8.79688C342.688 8.13021 342.953 7.59896 343.484 7.20312C343.891 6.92188 344.312 6.80208 344.75 6.84375L344.891 6.85938L345.031 6.79688L345.406 6.65625C346.99 6.10417 348.651 5.51562 350.391 4.89062C352.078 4.27604 353.531 3.76042 354.75 3.34375C355.25 3.22917 355.719 3.30208 356.156 3.5625C356.615 3.83333 356.906 4.22396 357.031 4.73438C357.167 5.24479 357.104 5.72917 356.844 6.1875C356.542 6.65625 356.135 6.95312 355.625 7.07812C352.01 8.32812 349.167 9.33333 347.094 10.0938C346.875 10.1667 346.693 10.2969 346.547 10.4844C346.401 10.6719 346.318 10.8854 346.297 11.125C346.266 11.3542 346.224 11.6927 346.172 12.1406C346.13 12.5885 346.099 12.9219 346.078 13.1406C346.047 13.4635 346.156 13.724 346.406 13.9219C346.646 14.1094 346.922 14.151 347.234 14.0469C348.443 13.6094 349.547 13.2396 350.547 12.9375C352.026 12.5 353.219 12.1771 354.125 11.9688C354.302 11.9375 354.458 11.9271 354.594 11.9375C355.021 11.9896 355.391 12.1667 355.703 12.4688C356.016 12.7708 356.214 13.1354 356.297 13.5625C356.38 14.0938 356.271 14.5677 355.969 14.9844C355.656 15.4115 355.234 15.6719 354.703 15.7656C351.651 16.4115 348.75 17.4531 346 18.8906C345.552 19.0781 345.328 19.4219 345.328 19.9219L345.141 21.4688C345.057 21.9583 345.203 22.3646 345.578 22.6875C345.849 22.9167 346.24 23.0365 346.75 23.0469C347.26 23.0469 347.75 22.9948 348.219 22.8906C348.698 22.776 349.323 22.599 350.094 22.3594C350.573 22.2135 350.818 22.1406 350.828 22.1406C352.016 21.8698 353.302 21.5573 354.688 21.2031C355.208 21.0677 355.688 21.1354 356.125 21.4062ZM376.875 24.8125C376.906 25.4167 376.714 25.9219 376.297 26.3281C375.797 26.7344 375.24 27 374.625 27.125C373.708 27.375 372.745 27.5625 371.734 27.6875C370.734 27.8125 369.682 27.849 368.578 27.7969C367.474 27.7344 366.448 27.5677 365.5 27.2969C364.562 27.026 363.708 26.5885 362.938 25.9844C362.167 25.3698 361.599 24.6146 361.234 23.7188C361.099 23.3854 361 23 360.938 22.5625C360.875 22.125 360.839 21.7604 360.828 21.4688C360.818 21.1771 360.818 20.7656 360.828 20.2344L360.969 9.90625C360.99 8.88542 361.109 8.1875 361.328 7.8125C361.682 7.20833 362.208 6.89062 362.906 6.85938H362.953C363.62 6.85938 364.146 7.14062 364.531 7.70312C364.833 8.16146 364.974 9 364.953 10.2188L364.703 20.8594C364.651 21.2865 364.719 21.7083 364.906 22.125C365.156 22.5729 365.495 22.8958 365.922 23.0938C366.62 23.4792 367.411 23.724 368.297 23.8281C369.193 23.9219 370.005 23.9219 370.734 23.8281C371.474 23.724 372.344 23.5521 373.344 23.3125C374.312 23.0833 375.016 23.0208 375.453 23.125C375.776 23.2083 376.057 23.375 376.297 23.625C376.547 23.8646 376.719 24.151 376.812 24.4844C376.854 24.6302 376.875 24.7396 376.875 24.8125ZM406.406 7.65625C406.604 8.07292 406.609 8.51562 406.422 8.98438C406.245 9.44271 405.943 9.82292 405.516 10.125C405.099 10.4167 404.578 10.6979 403.953 10.9688C403.536 11.1458 403.078 11.3854 402.578 11.6875C402.318 11.8333 402.13 12.0417 402.016 12.3125C401.911 12.6458 402.036 13.0365 402.391 13.4844C403.526 14.9323 404.281 16.5052 404.656 18.2031C405.042 19.901 404.995 21.4792 404.516 22.9375C404.172 24.0104 403.583 24.9531 402.75 25.7656C401.927 26.5781 400.984 27.1562 399.922 27.5C398.87 27.8333 397.849 27.8698 396.859 27.6094C395.943 27.401 395.214 26.9219 394.672 26.1719C394.422 25.8177 394.286 25.4271 394.266 25C394.245 24.5625 394.344 24.1562 394.562 23.7812C394.823 23.4167 395.177 23.1927 395.625 23.1094C395.688 23.099 395.776 23.0938 395.891 23.0938C396.172 23.0938 396.417 23.1667 396.625 23.3125C396.75 23.4062 396.875 23.526 397 23.6719C397.219 23.9427 397.484 24.151 397.797 24.2969C398.359 24.5365 398.995 24.4062 399.703 23.9062C400.109 23.6146 400.448 23.3021 400.719 22.9688C401 22.6354 401.193 22.2812 401.297 21.9062C401.411 21.5312 401.49 21.1771 401.531 20.8438C401.583 20.5 401.557 20.1146 401.453 19.6875C401.349 19.25 401.25 18.8802 401.156 18.5781C401.073 18.2656 400.917 17.8802 400.688 17.4219C400.469 16.9635 400.292 16.6146 400.156 16.375C400.031 16.125 399.844 15.776 399.594 15.3281C399.573 15.2969 399.51 15.1927 399.406 15.0156C399.312 14.8385 399.24 14.7031 399.188 14.6094C398.99 14.2448 398.823 13.9219 398.688 13.6406C398.562 13.349 398.453 13.0417 398.359 12.7188C398.266 12.3854 398.219 12.0677 398.219 11.7656C398.229 11.4635 398.297 11.1823 398.422 10.9219C398.786 10.2969 399.25 9.81771 399.812 9.48438C400.74 8.82812 401.688 8.22917 402.656 7.6875C403.271 7.29167 403.953 7.03646 404.703 6.92188C405.401 6.83854 405.958 7.06771 406.375 7.60938L406.406 7.65625ZM425.5 19C425.51 19.2188 425.568 20.2188 425.672 22C425.786 23.7708 425.807 25.125 425.734 26.0625C425.714 26.4062 425.646 26.7292 425.531 27.0312C425.208 27.6042 424.719 27.875 424.062 27.8438C423.542 27.8438 423.104 27.6562 422.75 27.2812C422.531 27.0625 422.38 26.7969 422.297 26.4844V26.4062C422.286 26.3438 422.276 26.2604 422.266 26.1562C422.255 26.0417 422.245 25.9583 422.234 25.9062C422.047 24.3958 421.911 22.0833 421.828 18.9688L421.812 18.6875C421.792 18.3646 421.625 18.1302 421.312 17.9844C421.146 17.9531 420.995 17.9583 420.859 18C419.203 18.3333 417.505 18.5573 415.766 18.6719C415.453 18.6927 415.203 18.8125 415.016 19.0312C414.828 19.25 414.75 19.5156 414.781 19.8281L414.797 20.0625C414.807 20.125 414.818 20.2083 414.828 20.3125C414.839 20.4167 414.849 20.5156 414.859 20.6094C414.87 20.6927 414.88 20.776 414.891 20.8594C415.057 22.1406 415.219 23.1406 415.375 23.8594C415.5 24.349 415.432 24.8177 415.172 25.2656C414.922 25.7031 414.552 25.9896 414.062 26.125C413.521 26.2396 413.031 26.1562 412.594 25.875C412.177 25.625 411.922 25.276 411.828 24.8281C411.578 23.6406 411.318 21.7969 411.047 19.2969L410.953 18.4531C410.724 16.4219 410.505 14.224 410.297 11.8594C410.318 11.3698 410.505 10.9531 410.859 10.6094C411.224 10.2656 411.651 10.0938 412.141 10.0938C412.536 10.0938 412.896 10.2135 413.219 10.4531C413.75 10.8594 414.005 11.3802 413.984 12.0156C413.995 12.2031 414.016 12.474 414.047 12.8281C414.089 13.1823 414.12 13.4479 414.141 13.625L414.188 14.25C414.208 14.4792 414.307 14.6667 414.484 14.8125C414.661 14.9583 414.865 15.026 415.094 15.0156C415.75 14.9635 417.719 14.7135 421 14.2656C421.188 14.2344 421.339 14.1458 421.453 14C421.578 13.8542 421.635 13.6875 421.625 13.5C421.542 11.6667 421.458 10.1146 421.375 8.84375C421.354 8.40625 421.505 8.02604 421.828 7.70312C422.203 7.29688 422.667 7.08333 423.219 7.0625C423.74 7.0625 424.177 7.25 424.531 7.625C424.885 8.01042 425.062 8.45312 425.062 8.95312C425.26 11.9948 425.396 14.9219 425.469 17.7344L425.5 19ZM439.641 11.5156C440.589 11.9323 441.38 12.5365 442.016 13.3281C442.661 14.1094 443.109 14.974 443.359 15.9219C443.62 16.8594 443.729 17.8385 443.688 18.8594C443.656 19.8698 443.479 20.8542 443.156 21.8125C442.75 23.0104 442.146 24.0938 441.344 25.0625C440.417 26.1979 439.172 26.9844 437.609 27.4219C436.057 27.8594 434.594 27.8333 433.219 27.3438C432.562 27.1042 431.995 26.7656 431.516 26.3281C431.047 25.8802 430.682 25.3906 430.422 24.8594C430.172 24.3281 429.99 23.7344 429.875 23.0781C429.76 22.4219 429.708 21.7812 429.719 21.1562C429.74 20.5312 429.802 19.8854 429.906 19.2188C430.115 17.9583 430.359 16.8438 430.641 15.875C430.922 14.8958 431.328 14.0521 431.859 13.3438C432.516 12.4583 433.385 11.8125 434.469 11.4062C435.562 11 436.682 10.8698 437.828 11.0156C438.443 11.0885 439.047 11.2552 439.641 11.5156ZM439.984 20.3125C440.443 19.1771 440.5 18 440.156 16.7812C439.979 16.25 439.693 15.776 439.297 15.3594C438.911 14.9427 438.453 14.6302 437.922 14.4219C437.12 14.099 436.344 14.151 435.594 14.5781C435.198 14.8073 434.844 15.1146 434.531 15.5C434.229 15.875 433.995 16.2396 433.828 16.5938C433.672 16.9479 433.531 17.3906 433.406 17.9219C433.281 18.4531 433.198 18.8698 433.156 19.1719C433.115 19.474 433.068 19.875 433.016 20.375C432.87 21.7604 433.135 22.7604 433.812 23.375C434.312 23.8125 434.891 24.0208 435.547 24C435.839 24 436.141 23.9583 436.453 23.875C437.224 23.6667 437.922 23.25 438.547 22.625C439.182 21.9896 439.661 21.2188 439.984 20.3125ZM470.391 12.5C470.672 12.8229 470.802 13.2031 470.781 13.6406C470.781 13.776 470.776 13.875 470.766 13.9375C470.62 14.6771 470.391 15.4948 470.078 16.3906C469.776 17.2865 469.51 18.0052 469.281 18.5469C469.062 19.0781 468.724 19.8698 468.266 20.9219L468.141 21.2188C467.766 22.0938 467.344 22.9531 466.875 23.7969C466.396 24.651 465.938 25.224 465.5 25.5156C465.073 25.8073 464.516 25.8438 463.828 25.625C463.568 25.5417 463.328 25.4219 463.109 25.2656C462.891 25.099 462.677 24.8802 462.469 24.6094C462.271 24.3385 462.12 24.1198 462.016 23.9531C461.911 23.776 461.76 23.5052 461.562 23.1406C461.417 22.8698 461.307 22.6719 461.234 22.5469C461.141 22.3906 461 22.125 460.812 21.75C460.521 21.1458 460.266 20.6771 460.047 20.3438C459.87 20.0625 459.604 19.9219 459.25 19.9219C458.927 19.9219 458.661 20.0677 458.453 20.3594C458.349 20.5156 458.141 20.8021 457.828 21.2188C457.766 21.3021 457.672 21.4271 457.547 21.5938C457.432 21.7604 457.344 21.8854 457.281 21.9688C456.385 23.1667 455.771 23.9583 455.438 24.3438L455.297 24.5156C454.901 24.974 454.578 25.3333 454.328 25.5938C454.089 25.8438 453.766 26.1458 453.359 26.5C452.964 26.8542 452.562 27.1146 452.156 27.2812C451.75 27.4479 451.339 27.5312 450.922 27.5312H450.875C450.083 27.5 449.438 27.1771 448.938 26.5625C448.542 26.1042 448.26 25.5885 448.094 25.0156C447.927 24.4323 447.797 23.7552 447.703 22.9844C447.432 20.7656 447.365 17.5885 447.5 13.4531C447.521 12.9323 447.557 12.5104 447.609 12.1875C447.672 11.8646 447.797 11.5833 447.984 11.3438C448.318 10.9271 448.74 10.7188 449.25 10.7188H449.297C449.849 10.7396 450.276 10.974 450.578 11.4219C450.776 11.7135 450.885 12.0938 450.906 12.5625C450.938 13.0208 450.927 13.4479 450.875 13.8438C450.823 14.4896 450.776 15.4271 450.734 16.6562C450.703 17.875 450.714 19.1667 450.766 20.5312C450.828 21.8854 450.964 22.6615 451.172 22.8594C451.297 22.9844 451.448 23.0365 451.625 23.0156C451.917 22.9948 452.312 22.724 452.812 22.2031C453.323 21.6719 454 20.8177 454.844 19.6406C454.865 19.6094 454.891 19.5677 454.922 19.5156C454.964 19.4635 454.99 19.4323 455 19.4219C455.438 18.8177 455.755 18.3646 455.953 18.0625C456.349 17.4792 456.651 17.0469 456.859 16.7656C457.234 16.2656 457.729 15.9427 458.344 15.7969C459.031 15.651 459.552 15.6823 459.906 15.8906C460.198 16.0573 460.531 16.349 460.906 16.7656C461.292 17.1823 461.599 17.5521 461.828 17.875C462.068 18.1875 462.385 18.625 462.781 19.1875C463.104 19.6667 463.396 20.0677 463.656 20.3906C463.833 20.6094 464.073 20.7031 464.375 20.6719C464.656 20.6406 464.859 20.4844 464.984 20.2031C465.255 19.5573 465.656 18.5208 466.188 17.0938C466.729 15.6562 467.031 14.8281 467.094 14.6094C467.24 14.0781 467.406 13.5885 467.594 13.1406C467.792 12.6823 467.943 12.4062 468.047 12.3125C468.401 12.0208 468.807 11.8906 469.266 11.9219C469.724 11.9531 470.099 12.1458 470.391 12.5Z" fill="#1C39FF"/>
</svg>
