<svg width="25" height="20" viewBox="0 0 25 20" fill="none" xmlns="http://www.w3.org/2000/svg">
<path d="M12.516 0.00289064C17.5261 0.0749241 21.5022 2.10062 24.4616 6.02645C24.5497 6.14326 24.6317 6.26591 24.7098 6.39051C25.2032 7.17606 25.0571 8.0317 24.3545 8.49408C23.6239 8.97398 22.7242 8.79098 22.1818 8.02197C21.3851 6.89085 20.4324 5.91353 19.3005 5.09391C14.8919 1.90107 8.41776 2.3177 4.52265 6.08291C3.86712 6.71661 3.32069 7.45836 2.73422 8.15922C2.25884 8.7277 1.51824 8.90973 0.855714 8.60116C0.217204 8.30329 -0.135078 7.61994 0.0480683 6.94439C0.118124 6.68546 0.261239 6.43334 0.420366 6.21237C2.92037 2.7499 6.31008 0.684288 10.6265 0.0807647C10.8237 0.0535088 11.0208 0.0116515 11.219 0.00581092C11.6503 -0.00587019 12.0837 0.00191722 12.515 0.00191722L12.516 0.00289064Z" fill="#FFFCEE"/>
<path d="M12.531 10.8576C9.9089 10.8517 7.80922 12.856 7.80421 15.3714C7.79821 17.9227 9.90289 19.9961 12.501 20C15.072 20.0039 17.2017 17.9324 17.2047 15.4259C17.2077 12.8872 15.1381 10.8634 12.532 10.8566L12.531 10.8576ZM12.502 17.9451C11.0728 17.9432 9.9149 16.8013 9.9179 15.3976C9.9209 14.0134 11.0758 12.9096 12.519 12.9135C13.9531 12.9174 15.092 14.031 15.09 15.4278C15.088 16.8072 13.9161 17.947 12.502 17.9451Z" fill="#FFFCEE"/>
<path d="M12.475 5.19907C15.6936 5.27402 18.2076 6.56381 20.0511 9.07817C20.6416 9.88416 20.5114 10.8002 19.7679 11.3015C19.0323 11.7969 18.1686 11.5984 17.5671 10.7953C15.3333 7.81271 11.3841 7.29193 8.52486 9.62621C8.09852 9.97469 7.74924 10.4215 7.40597 10.8547C6.8165 11.5964 5.93979 11.7862 5.22422 11.2898C4.51465 10.7972 4.36854 9.89877 4.91397 9.14144C6.75945 6.57938 9.30148 5.27889 12.475 5.19809V5.19907Z" fill="#FFFCEE"/>
</svg>
